<?xml version="1.0" encoding="utf-8" standalone="no"?>
<!DOCTYPE svg PUBLIC "-//W3C//DTD SVG 1.1//EN"
  "http://www.w3.org/Graphics/SVG/1.1/DTD/svg11.dtd">
<svg xmlns:xlink="http://www.w3.org/1999/xlink" width="1212.951254pt" height="516.793266pt" viewBox="0 0 1212.951254 516.793266" xmlns="http://www.w3.org/2000/svg" version="1.1">
 <metadata>
  <rdf:RDF xmlns:dc="http://purl.org/dc/elements/1.1/" xmlns:cc="http://creativecommons.org/ns#" xmlns:rdf="http://www.w3.org/1999/02/22-rdf-syntax-ns#">
   <cc:Work>
    <dc:type rdf:resource="http://purl.org/dc/dcmitype/StillImage"/>
    <dc:date>2025-10-02T05:00:11.889086</dc:date>
    <dc:format>image/svg+xml</dc:format>
    <dc:creator>
     <cc:Agent>
      <dc:title>Matplotlib v3.10.0, https://matplotlib.org/</dc:title>
     </cc:Agent>
    </dc:creator>
   </cc:Work>
  </rdf:RDF>
 </metadata>
 <defs>
  <style type="text/css">*{stroke-linejoin: round; stroke-linecap: butt}</style>
 </defs>
 <g id="figure_1">
  <g id="patch_1">
   <path d="M 0 516.793266 
L 1212.951254 516.793266 
L 1212.951254 0 
L 0 0 
z
" style="fill: #ffffff"/>
  </g>
  <g id="axes_1">
   <g id="patch_2">
    <path d="M 384.773986 469.455625 
L 831.173986 469.455625 
L 831.173986 25.935625 
L 384.773986 25.935625 
z
" style="fill: #eaeaf2"/>
   </g>
   <g id="matplotlib.axis_1">
    <g id="xtick_1">
     <g id="line2d_1">
      <path d="M 477.615122 469.455625 
L 477.615122 25.935625 
" clip-path="url(#p6cc9195c0d)" style="fill: none; stroke: #ffffff; stroke-linecap: round"/>
     </g>
     <g id="line2d_2">
      <defs>
       <path id="m1c1e60d478" d="M 0 0 
L 0 6 
" style="stroke: #262626; stroke-width: 1.25"/>
      </defs>
      <g>
       <use xlink:href="#m1c1e60d478" x="477.615122" y="469.455625" style="fill: #262626; stroke: #262626; stroke-width: 1.25"/>
      </g>
     </g>
     <g id="text_1">
      <!-- −0.010 -->
      <g style="fill: #262626" transform="translate(458.94331 491.116578) scale(0.121 -0.121)">
       <defs>
        <path id="ArialMT-2212" d="M 3381 1997 
L 356 1997 
L 356 2522 
L 3381 2522 
L 3381 1997 
z
" transform="scale(0.015625)"/>
        <path id="ArialMT-30" d="M 266 2259 
Q 266 3072 433 3567 
Q 600 4063 929 4331 
Q 1259 4600 1759 4600 
Q 2128 4600 2406 4451 
Q 2684 4303 2865 4023 
Q 3047 3744 3150 3342 
Q 3253 2941 3253 2259 
Q 3253 1453 3087 958 
Q 2922 463 2592 192 
Q 2263 -78 1759 -78 
Q 1097 -78 719 397 
Q 266 969 266 2259 
z
M 844 2259 
Q 844 1131 1108 757 
Q 1372 384 1759 384 
Q 2147 384 2411 759 
Q 2675 1134 2675 2259 
Q 2675 3391 2411 3762 
Q 2147 4134 1753 4134 
Q 1366 4134 1134 3806 
Q 844 3388 844 2259 
z
" transform="scale(0.015625)"/>
        <path id="ArialMT-2e" d="M 581 0 
L 581 641 
L 1222 641 
L 1222 0 
L 581 0 
z
" transform="scale(0.015625)"/>
        <path id="ArialMT-31" d="M 2384 0 
L 1822 0 
L 1822 3584 
Q 1619 3391 1289 3197 
Q 959 3003 697 2906 
L 697 3450 
Q 1169 3672 1522 3987 
Q 1875 4303 2022 4600 
L 2384 4600 
L 2384 0 
z
" transform="scale(0.015625)"/>
       </defs>
       <use xlink:href="#ArialMT-2212"/>
       <use xlink:href="#ArialMT-30" transform="translate(58.398438 0)"/>
       <use xlink:href="#ArialMT-2e" transform="translate(114.013672 0)"/>
       <use xlink:href="#ArialMT-30" transform="translate(141.796875 0)"/>
       <use xlink:href="#ArialMT-31" transform="translate(197.412109 0)"/>
       <use xlink:href="#ArialMT-30" transform="translate(253.027344 0)"/>
      </g>
     </g>
    </g>
    <g id="xtick_2">
     <g id="line2d_3">
      <path d="M 571.953456 469.455625 
L 571.953456 25.935625 
" clip-path="url(#p6cc9195c0d)" style="fill: none; stroke: #ffffff; stroke-linecap: round"/>
     </g>
     <g id="line2d_4">
      <g>
       <use xlink:href="#m1c1e60d478" x="571.953456" y="469.455625" style="fill: #262626; stroke: #262626; stroke-width: 1.25"/>
      </g>
     </g>
     <g id="text_2">
      <!-- −0.005 -->
      <g style="fill: #262626" transform="translate(553.281643 491.116578) scale(0.121 -0.121)">
       <defs>
        <path id="ArialMT-35" d="M 266 1200 
L 856 1250 
Q 922 819 1161 601 
Q 1400 384 1738 384 
Q 2144 384 2425 690 
Q 2706 997 2706 1503 
Q 2706 1984 2436 2262 
Q 2166 2541 1728 2541 
Q 1456 2541 1237 2417 
Q 1019 2294 894 2097 
L 366 2166 
L 809 4519 
L 3088 4519 
L 3088 3981 
L 1259 3981 
L 1013 2750 
Q 1425 3038 1878 3038 
Q 2478 3038 2890 2622 
Q 3303 2206 3303 1553 
Q 3303 931 2941 478 
Q 2500 -78 1738 -78 
Q 1113 -78 717 272 
Q 322 622 266 1200 
z
" transform="scale(0.015625)"/>
       </defs>
       <use xlink:href="#ArialMT-2212"/>
       <use xlink:href="#ArialMT-30" transform="translate(58.398438 0)"/>
       <use xlink:href="#ArialMT-2e" transform="translate(114.013672 0)"/>
       <use xlink:href="#ArialMT-30" transform="translate(141.796875 0)"/>
       <use xlink:href="#ArialMT-30" transform="translate(197.412109 0)"/>
       <use xlink:href="#ArialMT-35" transform="translate(253.027344 0)"/>
      </g>
     </g>
    </g>
    <g id="xtick_3">
     <g id="line2d_5">
      <path d="M 666.291789 469.455625 
L 666.291789 25.935625 
" clip-path="url(#p6cc9195c0d)" style="fill: none; stroke: #ffffff; stroke-linecap: round"/>
     </g>
     <g id="line2d_6">
      <g>
       <use xlink:href="#m1c1e60d478" x="666.291789" y="469.455625" style="fill: #262626; stroke: #262626; stroke-width: 1.25"/>
      </g>
     </g>
     <g id="text_3">
      <!-- 0.000 -->
      <g style="fill: #262626" transform="translate(651.153555 491.116578) scale(0.121 -0.121)">
       <use xlink:href="#ArialMT-30"/>
       <use xlink:href="#ArialMT-2e" transform="translate(55.615234 0)"/>
       <use xlink:href="#ArialMT-30" transform="translate(83.398438 0)"/>
       <use xlink:href="#ArialMT-30" transform="translate(139.013672 0)"/>
       <use xlink:href="#ArialMT-30" transform="translate(194.628906 0)"/>
      </g>
     </g>
    </g>
    <g id="xtick_4">
     <g id="line2d_7">
      <path d="M 760.630122 469.455625 
L 760.630122 25.935625 
" clip-path="url(#p6cc9195c0d)" style="fill: none; stroke: #ffffff; stroke-linecap: round"/>
     </g>
     <g id="line2d_8">
      <g>
       <use xlink:href="#m1c1e60d478" x="760.630122" y="469.455625" style="fill: #262626; stroke: #262626; stroke-width: 1.25"/>
      </g>
     </g>
     <g id="text_4">
      <!-- 0.005 -->
      <g style="fill: #262626" transform="translate(745.491888 491.116578) scale(0.121 -0.121)">
       <use xlink:href="#ArialMT-30"/>
       <use xlink:href="#ArialMT-2e" transform="translate(55.615234 0)"/>
       <use xlink:href="#ArialMT-30" transform="translate(83.398438 0)"/>
       <use xlink:href="#ArialMT-30" transform="translate(139.013672 0)"/>
       <use xlink:href="#ArialMT-35" transform="translate(194.628906 0)"/>
      </g>
     </g>
    </g>
    <g id="text_5">
     <!-- Correlation -->
     <g style="fill: #262626" transform="translate(575.69483 506.969766) scale(0.132 -0.132)">
      <defs>
       <path id="ArialMT-43" d="M 3763 1606 
L 4369 1453 
Q 4178 706 3683 314 
Q 3188 -78 2472 -78 
Q 1731 -78 1267 223 
Q 803 525 561 1097 
Q 319 1669 319 2325 
Q 319 3041 592 3573 
Q 866 4106 1370 4382 
Q 1875 4659 2481 4659 
Q 3169 4659 3637 4309 
Q 4106 3959 4291 3325 
L 3694 3184 
Q 3534 3684 3231 3912 
Q 2928 4141 2469 4141 
Q 1941 4141 1586 3887 
Q 1231 3634 1087 3207 
Q 944 2781 944 2328 
Q 944 1744 1114 1308 
Q 1284 872 1643 656 
Q 2003 441 2422 441 
Q 2931 441 3284 734 
Q 3638 1028 3763 1606 
z
" transform="scale(0.015625)"/>
       <path id="ArialMT-6f" d="M 213 1659 
Q 213 2581 725 3025 
Q 1153 3394 1769 3394 
Q 2453 3394 2887 2945 
Q 3322 2497 3322 1706 
Q 3322 1066 3130 698 
Q 2938 331 2570 128 
Q 2203 -75 1769 -75 
Q 1072 -75 642 372 
Q 213 819 213 1659 
z
M 791 1659 
Q 791 1022 1069 705 
Q 1347 388 1769 388 
Q 2188 388 2466 706 
Q 2744 1025 2744 1678 
Q 2744 2294 2464 2611 
Q 2184 2928 1769 2928 
Q 1347 2928 1069 2612 
Q 791 2297 791 1659 
z
" transform="scale(0.015625)"/>
       <path id="ArialMT-72" d="M 416 0 
L 416 3319 
L 922 3319 
L 922 2816 
Q 1116 3169 1280 3281 
Q 1444 3394 1641 3394 
Q 1925 3394 2219 3213 
L 2025 2691 
Q 1819 2813 1613 2813 
Q 1428 2813 1281 2702 
Q 1134 2591 1072 2394 
Q 978 2094 978 1738 
L 978 0 
L 416 0 
z
" transform="scale(0.015625)"/>
       <path id="ArialMT-65" d="M 2694 1069 
L 3275 997 
Q 3138 488 2766 206 
Q 2394 -75 1816 -75 
Q 1088 -75 661 373 
Q 234 822 234 1631 
Q 234 2469 665 2931 
Q 1097 3394 1784 3394 
Q 2450 3394 2872 2941 
Q 3294 2488 3294 1666 
Q 3294 1616 3291 1516 
L 816 1516 
Q 847 969 1125 678 
Q 1403 388 1819 388 
Q 2128 388 2347 550 
Q 2566 713 2694 1069 
z
M 847 1978 
L 2700 1978 
Q 2663 2397 2488 2606 
Q 2219 2931 1791 2931 
Q 1403 2931 1139 2672 
Q 875 2413 847 1978 
z
" transform="scale(0.015625)"/>
       <path id="ArialMT-6c" d="M 409 0 
L 409 4581 
L 972 4581 
L 972 0 
L 409 0 
z
" transform="scale(0.015625)"/>
       <path id="ArialMT-61" d="M 2588 409 
Q 2275 144 1986 34 
Q 1697 -75 1366 -75 
Q 819 -75 525 192 
Q 231 459 231 875 
Q 231 1119 342 1320 
Q 453 1522 633 1644 
Q 813 1766 1038 1828 
Q 1203 1872 1538 1913 
Q 2219 1994 2541 2106 
Q 2544 2222 2544 2253 
Q 2544 2597 2384 2738 
Q 2169 2928 1744 2928 
Q 1347 2928 1158 2789 
Q 969 2650 878 2297 
L 328 2372 
Q 403 2725 575 2942 
Q 747 3159 1072 3276 
Q 1397 3394 1825 3394 
Q 2250 3394 2515 3294 
Q 2781 3194 2906 3042 
Q 3031 2891 3081 2659 
Q 3109 2516 3109 2141 
L 3109 1391 
Q 3109 606 3145 398 
Q 3181 191 3288 0 
L 2700 0 
Q 2613 175 2588 409 
z
M 2541 1666 
Q 2234 1541 1622 1453 
Q 1275 1403 1131 1340 
Q 988 1278 909 1158 
Q 831 1038 831 891 
Q 831 666 1001 516 
Q 1172 366 1500 366 
Q 1825 366 2078 508 
Q 2331 650 2450 897 
Q 2541 1088 2541 1459 
L 2541 1666 
z
" transform="scale(0.015625)"/>
       <path id="ArialMT-74" d="M 1650 503 
L 1731 6 
Q 1494 -44 1306 -44 
Q 1000 -44 831 53 
Q 663 150 594 308 
Q 525 466 525 972 
L 525 2881 
L 113 2881 
L 113 3319 
L 525 3319 
L 525 4141 
L 1084 4478 
L 1084 3319 
L 1650 3319 
L 1650 2881 
L 1084 2881 
L 1084 941 
Q 1084 700 1114 631 
Q 1144 563 1211 522 
Q 1278 481 1403 481 
Q 1497 481 1650 503 
z
" transform="scale(0.015625)"/>
       <path id="ArialMT-69" d="M 425 3934 
L 425 4581 
L 988 4581 
L 988 3934 
L 425 3934 
z
M 425 0 
L 425 3319 
L 988 3319 
L 988 0 
L 425 0 
z
" transform="scale(0.015625)"/>
       <path id="ArialMT-6e" d="M 422 0 
L 422 3319 
L 928 3319 
L 928 2847 
Q 1294 3394 1984 3394 
Q 2284 3394 2536 3286 
Q 2788 3178 2913 3003 
Q 3038 2828 3088 2588 
Q 3119 2431 3119 2041 
L 3119 0 
L 2556 0 
L 2556 2019 
Q 2556 2363 2490 2533 
Q 2425 2703 2258 2804 
Q 2091 2906 1866 2906 
Q 1506 2906 1245 2678 
Q 984 2450 984 1813 
L 984 0 
L 422 0 
z
" transform="scale(0.015625)"/>
      </defs>
      <use xlink:href="#ArialMT-43"/>
      <use xlink:href="#ArialMT-6f" transform="translate(72.216797 0)"/>
      <use xlink:href="#ArialMT-72" transform="translate(127.832031 0)"/>
      <use xlink:href="#ArialMT-72" transform="translate(161.132812 0)"/>
      <use xlink:href="#ArialMT-65" transform="translate(194.433594 0)"/>
      <use xlink:href="#ArialMT-6c" transform="translate(250.048828 0)"/>
      <use xlink:href="#ArialMT-61" transform="translate(272.265625 0)"/>
      <use xlink:href="#ArialMT-74" transform="translate(327.880859 0)"/>
      <use xlink:href="#ArialMT-69" transform="translate(355.664062 0)"/>
      <use xlink:href="#ArialMT-6f" transform="translate(377.880859 0)"/>
      <use xlink:href="#ArialMT-6e" transform="translate(433.496094 0)"/>
     </g>
    </g>
   </g>
   <g id="matplotlib.axis_2">
    <g id="ytick_1">
     <g id="line2d_9">
      <defs>
       <path id="m5d43462bc4" d="M 0 0 
L -6 0 
" style="stroke: #262626; stroke-width: 1.25"/>
      </defs>
      <g>
       <use xlink:href="#m5d43462bc4" x="384.773986" y="37.023625" style="fill: #262626; stroke: #262626; stroke-width: 1.25"/>
      </g>
     </g>
     <g id="text_6">
      <!-- fuel_consumption_rate -->
      <g style="fill: #262626" transform="translate(249.359799 41.427836) scale(0.121 -0.121)">
       <defs>
        <path id="ArialMT-66" d="M 556 0 
L 556 2881 
L 59 2881 
L 59 3319 
L 556 3319 
L 556 3672 
Q 556 4006 616 4169 
Q 697 4388 901 4523 
Q 1106 4659 1475 4659 
Q 1713 4659 2000 4603 
L 1916 4113 
Q 1741 4144 1584 4144 
Q 1328 4144 1222 4034 
Q 1116 3925 1116 3625 
L 1116 3319 
L 1763 3319 
L 1763 2881 
L 1116 2881 
L 1116 0 
L 556 0 
z
" transform="scale(0.015625)"/>
        <path id="ArialMT-75" d="M 2597 0 
L 2597 488 
Q 2209 -75 1544 -75 
Q 1250 -75 995 37 
Q 741 150 617 320 
Q 494 491 444 738 
Q 409 903 409 1263 
L 409 3319 
L 972 3319 
L 972 1478 
Q 972 1038 1006 884 
Q 1059 663 1231 536 
Q 1403 409 1656 409 
Q 1909 409 2131 539 
Q 2353 669 2445 892 
Q 2538 1116 2538 1541 
L 2538 3319 
L 3100 3319 
L 3100 0 
L 2597 0 
z
" transform="scale(0.015625)"/>
        <path id="ArialMT-5f" d="M -97 -1272 
L -97 -866 
L 3631 -866 
L 3631 -1272 
L -97 -1272 
z
" transform="scale(0.015625)"/>
        <path id="ArialMT-63" d="M 2588 1216 
L 3141 1144 
Q 3050 572 2676 248 
Q 2303 -75 1759 -75 
Q 1078 -75 664 370 
Q 250 816 250 1647 
Q 250 2184 428 2587 
Q 606 2991 970 3192 
Q 1334 3394 1763 3394 
Q 2303 3394 2647 3120 
Q 2991 2847 3088 2344 
L 2541 2259 
Q 2463 2594 2264 2762 
Q 2066 2931 1784 2931 
Q 1359 2931 1093 2626 
Q 828 2322 828 1663 
Q 828 994 1084 691 
Q 1341 388 1753 388 
Q 2084 388 2306 591 
Q 2528 794 2588 1216 
z
" transform="scale(0.015625)"/>
        <path id="ArialMT-73" d="M 197 991 
L 753 1078 
Q 800 744 1014 566 
Q 1228 388 1613 388 
Q 2000 388 2187 545 
Q 2375 703 2375 916 
Q 2375 1106 2209 1216 
Q 2094 1291 1634 1406 
Q 1016 1563 777 1677 
Q 538 1791 414 1992 
Q 291 2194 291 2438 
Q 291 2659 392 2848 
Q 494 3038 669 3163 
Q 800 3259 1026 3326 
Q 1253 3394 1513 3394 
Q 1903 3394 2198 3281 
Q 2494 3169 2634 2976 
Q 2775 2784 2828 2463 
L 2278 2388 
Q 2241 2644 2061 2787 
Q 1881 2931 1553 2931 
Q 1166 2931 1000 2803 
Q 834 2675 834 2503 
Q 834 2394 903 2306 
Q 972 2216 1119 2156 
Q 1203 2125 1616 2013 
Q 2213 1853 2448 1751 
Q 2684 1650 2818 1456 
Q 2953 1263 2953 975 
Q 2953 694 2789 445 
Q 2625 197 2315 61 
Q 2006 -75 1616 -75 
Q 969 -75 630 194 
Q 291 463 197 991 
z
" transform="scale(0.015625)"/>
        <path id="ArialMT-6d" d="M 422 0 
L 422 3319 
L 925 3319 
L 925 2853 
Q 1081 3097 1340 3245 
Q 1600 3394 1931 3394 
Q 2300 3394 2536 3241 
Q 2772 3088 2869 2813 
Q 3263 3394 3894 3394 
Q 4388 3394 4653 3120 
Q 4919 2847 4919 2278 
L 4919 0 
L 4359 0 
L 4359 2091 
Q 4359 2428 4304 2576 
Q 4250 2725 4106 2815 
Q 3963 2906 3769 2906 
Q 3419 2906 3187 2673 
Q 2956 2441 2956 1928 
L 2956 0 
L 2394 0 
L 2394 2156 
Q 2394 2531 2256 2718 
Q 2119 2906 1806 2906 
Q 1569 2906 1367 2781 
Q 1166 2656 1075 2415 
Q 984 2175 984 1722 
L 984 0 
L 422 0 
z
" transform="scale(0.015625)"/>
        <path id="ArialMT-70" d="M 422 -1272 
L 422 3319 
L 934 3319 
L 934 2888 
Q 1116 3141 1344 3267 
Q 1572 3394 1897 3394 
Q 2322 3394 2647 3175 
Q 2972 2956 3137 2557 
Q 3303 2159 3303 1684 
Q 3303 1175 3120 767 
Q 2938 359 2589 142 
Q 2241 -75 1856 -75 
Q 1575 -75 1351 44 
Q 1128 163 984 344 
L 984 -1272 
L 422 -1272 
z
M 931 1641 
Q 931 1000 1190 694 
Q 1450 388 1819 388 
Q 2194 388 2461 705 
Q 2728 1022 2728 1688 
Q 2728 2322 2467 2637 
Q 2206 2953 1844 2953 
Q 1484 2953 1207 2617 
Q 931 2281 931 1641 
z
" transform="scale(0.015625)"/>
       </defs>
       <use xlink:href="#ArialMT-66"/>
       <use xlink:href="#ArialMT-75" transform="translate(27.783203 0)"/>
       <use xlink:href="#ArialMT-65" transform="translate(83.398438 0)"/>
       <use xlink:href="#ArialMT-6c" transform="translate(139.013672 0)"/>
       <use xlink:href="#ArialMT-5f" transform="translate(161.230469 0)"/>
       <use xlink:href="#ArialMT-63" transform="translate(216.845703 0)"/>
       <use xlink:href="#ArialMT-6f" transform="translate(266.845703 0)"/>
       <use xlink:href="#ArialMT-6e" transform="translate(322.460938 0)"/>
       <use xlink:href="#ArialMT-73" transform="translate(378.076172 0)"/>
       <use xlink:href="#ArialMT-75" transform="translate(428.076172 0)"/>
       <use xlink:href="#ArialMT-6d" transform="translate(483.691406 0)"/>
       <use xlink:href="#ArialMT-70" transform="translate(566.992188 0)"/>
       <use xlink:href="#ArialMT-74" transform="translate(622.607422 0)"/>
       <use xlink:href="#ArialMT-69" transform="translate(650.390625 0)"/>
       <use xlink:href="#ArialMT-6f" transform="translate(672.607422 0)"/>
       <use xlink:href="#ArialMT-6e" transform="translate(728.222656 0)"/>
       <use xlink:href="#ArialMT-5f" transform="translate(783.837891 0)"/>
       <use xlink:href="#ArialMT-72" transform="translate(839.453125 0)"/>
       <use xlink:href="#ArialMT-61" transform="translate(872.753906 0)"/>
       <use xlink:href="#ArialMT-74" transform="translate(928.369141 0)"/>
       <use xlink:href="#ArialMT-65" transform="translate(956.152344 0)"/>
      </g>
     </g>
    </g>
    <g id="ytick_2">
     <g id="line2d_10">
      <g>
       <use xlink:href="#m5d43462bc4" x="384.773986" y="59.199625" style="fill: #262626; stroke: #262626; stroke-width: 1.25"/>
      </g>
     </g>
     <g id="text_7">
      <!-- eta_variation_hours -->
      <g style="fill: #262626" transform="translate(265.500064 63.530102) scale(0.121 -0.121)">
       <defs>
        <path id="ArialMT-76" d="M 1344 0 
L 81 3319 
L 675 3319 
L 1388 1331 
Q 1503 1009 1600 663 
Q 1675 925 1809 1294 
L 2547 3319 
L 3125 3319 
L 1869 0 
L 1344 0 
z
" transform="scale(0.015625)"/>
        <path id="ArialMT-68" d="M 422 0 
L 422 4581 
L 984 4581 
L 984 2938 
Q 1378 3394 1978 3394 
Q 2347 3394 2619 3248 
Q 2891 3103 3008 2847 
Q 3125 2591 3125 2103 
L 3125 0 
L 2563 0 
L 2563 2103 
Q 2563 2525 2380 2717 
Q 2197 2909 1863 2909 
Q 1613 2909 1392 2779 
Q 1172 2650 1078 2428 
Q 984 2206 984 1816 
L 984 0 
L 422 0 
z
" transform="scale(0.015625)"/>
       </defs>
       <use xlink:href="#ArialMT-65"/>
       <use xlink:href="#ArialMT-74" transform="translate(55.615234 0)"/>
       <use xlink:href="#ArialMT-61" transform="translate(83.398438 0)"/>
       <use xlink:href="#ArialMT-5f" transform="translate(139.013672 0)"/>
       <use xlink:href="#ArialMT-76" transform="translate(194.628906 0)"/>
       <use xlink:href="#ArialMT-61" transform="translate(244.628906 0)"/>
       <use xlink:href="#ArialMT-72" transform="translate(300.244141 0)"/>
       <use xlink:href="#ArialMT-69" transform="translate(333.544922 0)"/>
       <use xlink:href="#ArialMT-61" transform="translate(355.761719 0)"/>
       <use xlink:href="#ArialMT-74" transform="translate(411.376953 0)"/>
       <use xlink:href="#ArialMT-69" transform="translate(439.160156 0)"/>
       <use xlink:href="#ArialMT-6f" transform="translate(461.376953 0)"/>
       <use xlink:href="#ArialMT-6e" transform="translate(516.992188 0)"/>
       <use xlink:href="#ArialMT-5f" transform="translate(572.607422 0)"/>
       <use xlink:href="#ArialMT-68" transform="translate(628.222656 0)"/>
       <use xlink:href="#ArialMT-6f" transform="translate(683.837891 0)"/>
       <use xlink:href="#ArialMT-75" transform="translate(739.453125 0)"/>
       <use xlink:href="#ArialMT-72" transform="translate(795.068359 0)"/>
       <use xlink:href="#ArialMT-73" transform="translate(828.369141 0)"/>
      </g>
     </g>
    </g>
    <g id="ytick_3">
     <g id="line2d_11">
      <g>
       <use xlink:href="#m5d43462bc4" x="384.773986" y="81.375625" style="fill: #262626; stroke: #262626; stroke-width: 1.25"/>
      </g>
     </g>
     <g id="text_8">
      <!-- order_fulfillment_status -->
      <g style="fill: #262626" transform="translate(246.688346 85.779836) scale(0.121 -0.121)">
       <defs>
        <path id="ArialMT-64" d="M 2575 0 
L 2575 419 
Q 2259 -75 1647 -75 
Q 1250 -75 917 144 
Q 584 363 401 755 
Q 219 1147 219 1656 
Q 219 2153 384 2558 
Q 550 2963 881 3178 
Q 1213 3394 1622 3394 
Q 1922 3394 2156 3267 
Q 2391 3141 2538 2938 
L 2538 4581 
L 3097 4581 
L 3097 0 
L 2575 0 
z
M 797 1656 
Q 797 1019 1065 703 
Q 1334 388 1700 388 
Q 2069 388 2326 689 
Q 2584 991 2584 1609 
Q 2584 2291 2321 2609 
Q 2059 2928 1675 2928 
Q 1300 2928 1048 2622 
Q 797 2316 797 1656 
z
" transform="scale(0.015625)"/>
       </defs>
       <use xlink:href="#ArialMT-6f"/>
       <use xlink:href="#ArialMT-72" transform="translate(55.615234 0)"/>
       <use xlink:href="#ArialMT-64" transform="translate(88.916016 0)"/>
       <use xlink:href="#ArialMT-65" transform="translate(144.53125 0)"/>
       <use xlink:href="#ArialMT-72" transform="translate(200.146484 0)"/>
       <use xlink:href="#ArialMT-5f" transform="translate(233.447266 0)"/>
       <use xlink:href="#ArialMT-66" transform="translate(289.0625 0)"/>
       <use xlink:href="#ArialMT-75" transform="translate(316.845703 0)"/>
       <use xlink:href="#ArialMT-6c" transform="translate(372.460938 0)"/>
       <use xlink:href="#ArialMT-66" transform="translate(394.677734 0)"/>
       <use xlink:href="#ArialMT-69" transform="translate(422.460938 0)"/>
       <use xlink:href="#ArialMT-6c" transform="translate(444.677734 0)"/>
       <use xlink:href="#ArialMT-6c" transform="translate(466.894531 0)"/>
       <use xlink:href="#ArialMT-6d" transform="translate(489.111328 0)"/>
       <use xlink:href="#ArialMT-65" transform="translate(572.412109 0)"/>
       <use xlink:href="#ArialMT-6e" transform="translate(628.027344 0)"/>
       <use xlink:href="#ArialMT-74" transform="translate(683.642578 0)"/>
       <use xlink:href="#ArialMT-5f" transform="translate(711.425781 0)"/>
       <use xlink:href="#ArialMT-73" transform="translate(767.041016 0)"/>
       <use xlink:href="#ArialMT-74" transform="translate(817.041016 0)"/>
       <use xlink:href="#ArialMT-61" transform="translate(844.824219 0)"/>
       <use xlink:href="#ArialMT-74" transform="translate(900.439453 0)"/>
       <use xlink:href="#ArialMT-75" transform="translate(928.222656 0)"/>
       <use xlink:href="#ArialMT-73" transform="translate(983.837891 0)"/>
      </g>
     </g>
    </g>
    <g id="ytick_4">
     <g id="line2d_12">
      <g>
       <use xlink:href="#m5d43462bc4" x="384.773986" y="103.551625" style="fill: #262626; stroke: #262626; stroke-width: 1.25"/>
      </g>
     </g>
     <g id="text_9">
      <!-- vehicle_gps_longitude -->
      <g style="fill: #262626" transform="translate(252.035033 107.882102) scale(0.121 -0.121)">
       <defs>
        <path id="ArialMT-67" d="M 319 -275 
L 866 -356 
Q 900 -609 1056 -725 
Q 1266 -881 1628 -881 
Q 2019 -881 2231 -725 
Q 2444 -569 2519 -288 
Q 2563 -116 2559 434 
Q 2191 0 1641 0 
Q 956 0 581 494 
Q 206 988 206 1678 
Q 206 2153 378 2554 
Q 550 2956 876 3175 
Q 1203 3394 1644 3394 
Q 2231 3394 2613 2919 
L 2613 3319 
L 3131 3319 
L 3131 450 
Q 3131 -325 2973 -648 
Q 2816 -972 2473 -1159 
Q 2131 -1347 1631 -1347 
Q 1038 -1347 672 -1080 
Q 306 -813 319 -275 
z
M 784 1719 
Q 784 1066 1043 766 
Q 1303 466 1694 466 
Q 2081 466 2343 764 
Q 2606 1063 2606 1700 
Q 2606 2309 2336 2618 
Q 2066 2928 1684 2928 
Q 1309 2928 1046 2623 
Q 784 2319 784 1719 
z
" transform="scale(0.015625)"/>
       </defs>
       <use xlink:href="#ArialMT-76"/>
       <use xlink:href="#ArialMT-65" transform="translate(50 0)"/>
       <use xlink:href="#ArialMT-68" transform="translate(105.615234 0)"/>
       <use xlink:href="#ArialMT-69" transform="translate(161.230469 0)"/>
       <use xlink:href="#ArialMT-63" transform="translate(183.447266 0)"/>
       <use xlink:href="#ArialMT-6c" transform="translate(233.447266 0)"/>
       <use xlink:href="#ArialMT-65" transform="translate(255.664062 0)"/>
       <use xlink:href="#ArialMT-5f" transform="translate(311.279297 0)"/>
       <use xlink:href="#ArialMT-67" transform="translate(366.894531 0)"/>
       <use xlink:href="#ArialMT-70" transform="translate(422.509766 0)"/>
       <use xlink:href="#ArialMT-73" transform="translate(478.125 0)"/>
       <use xlink:href="#ArialMT-5f" transform="translate(528.125 0)"/>
       <use xlink:href="#ArialMT-6c" transform="translate(583.740234 0)"/>
       <use xlink:href="#ArialMT-6f" transform="translate(605.957031 0)"/>
       <use xlink:href="#ArialMT-6e" transform="translate(661.572266 0)"/>
       <use xlink:href="#ArialMT-67" transform="translate(717.1875 0)"/>
       <use xlink:href="#ArialMT-69" transform="translate(772.802734 0)"/>
       <use xlink:href="#ArialMT-74" transform="translate(795.019531 0)"/>
       <use xlink:href="#ArialMT-75" transform="translate(822.802734 0)"/>
       <use xlink:href="#ArialMT-64" transform="translate(878.417969 0)"/>
       <use xlink:href="#ArialMT-65" transform="translate(934.033203 0)"/>
      </g>
     </g>
    </g>
    <g id="ytick_5">
     <g id="line2d_13">
      <g>
       <use xlink:href="#m5d43462bc4" x="384.773986" y="125.727625" style="fill: #262626; stroke: #262626; stroke-width: 1.25"/>
      </g>
     </g>
     <g id="text_10">
      <!-- route_risk_level -->
      <g style="fill: #262626" transform="translate(287.038064 130.058102) scale(0.121 -0.121)">
       <defs>
        <path id="ArialMT-6b" d="M 425 0 
L 425 4581 
L 988 4581 
L 988 1969 
L 2319 3319 
L 3047 3319 
L 1778 2088 
L 3175 0 
L 2481 0 
L 1384 1697 
L 988 1316 
L 988 0 
L 425 0 
z
" transform="scale(0.015625)"/>
       </defs>
       <use xlink:href="#ArialMT-72"/>
       <use xlink:href="#ArialMT-6f" transform="translate(33.300781 0)"/>
       <use xlink:href="#ArialMT-75" transform="translate(88.916016 0)"/>
       <use xlink:href="#ArialMT-74" transform="translate(144.53125 0)"/>
       <use xlink:href="#ArialMT-65" transform="translate(172.314453 0)"/>
       <use xlink:href="#ArialMT-5f" transform="translate(227.929688 0)"/>
       <use xlink:href="#ArialMT-72" transform="translate(283.544922 0)"/>
       <use xlink:href="#ArialMT-69" transform="translate(316.845703 0)"/>
       <use xlink:href="#ArialMT-73" transform="translate(339.0625 0)"/>
       <use xlink:href="#ArialMT-6b" transform="translate(389.0625 0)"/>
       <use xlink:href="#ArialMT-5f" transform="translate(439.0625 0)"/>
       <use xlink:href="#ArialMT-6c" transform="translate(494.677734 0)"/>
       <use xlink:href="#ArialMT-65" transform="translate(516.894531 0)"/>
       <use xlink:href="#ArialMT-76" transform="translate(572.509766 0)"/>
       <use xlink:href="#ArialMT-65" transform="translate(622.509766 0)"/>
       <use xlink:href="#ArialMT-6c" transform="translate(678.125 0)"/>
      </g>
     </g>
    </g>
    <g id="ytick_6">
     <g id="line2d_14">
      <g>
       <use xlink:href="#m5d43462bc4" x="384.773986" y="147.903625" style="fill: #262626; stroke: #262626; stroke-width: 1.25"/>
      </g>
     </g>
     <g id="text_11">
      <!-- port_congestion_level -->
      <g style="fill: #262626" transform="translate(254.061783 152.234102) scale(0.121 -0.121)">
       <use xlink:href="#ArialMT-70"/>
       <use xlink:href="#ArialMT-6f" transform="translate(55.615234 0)"/>
       <use xlink:href="#ArialMT-72" transform="translate(111.230469 0)"/>
       <use xlink:href="#ArialMT-74" transform="translate(144.53125 0)"/>
       <use xlink:href="#ArialMT-5f" transform="translate(172.314453 0)"/>
       <use xlink:href="#ArialMT-63" transform="translate(227.929688 0)"/>
       <use xlink:href="#ArialMT-6f" transform="translate(277.929688 0)"/>
       <use xlink:href="#ArialMT-6e" transform="translate(333.544922 0)"/>
       <use xlink:href="#ArialMT-67" transform="translate(389.160156 0)"/>
       <use xlink:href="#ArialMT-65" transform="translate(444.775391 0)"/>
       <use xlink:href="#ArialMT-73" transform="translate(500.390625 0)"/>
       <use xlink:href="#ArialMT-74" transform="translate(550.390625 0)"/>
       <use xlink:href="#ArialMT-69" transform="translate(578.173828 0)"/>
       <use xlink:href="#ArialMT-6f" transform="translate(600.390625 0)"/>
       <use xlink:href="#ArialMT-6e" transform="translate(656.005859 0)"/>
       <use xlink:href="#ArialMT-5f" transform="translate(711.621094 0)"/>
       <use xlink:href="#ArialMT-6c" transform="translate(767.236328 0)"/>
       <use xlink:href="#ArialMT-65" transform="translate(789.453125 0)"/>
       <use xlink:href="#ArialMT-76" transform="translate(845.068359 0)"/>
       <use xlink:href="#ArialMT-65" transform="translate(895.068359 0)"/>
       <use xlink:href="#ArialMT-6c" transform="translate(950.683594 0)"/>
      </g>
     </g>
    </g>
    <g id="ytick_7">
     <g id="line2d_15">
      <g>
       <use xlink:href="#m5d43462bc4" x="384.773986" y="170.079625" style="fill: #262626; stroke: #262626; stroke-width: 1.25"/>
      </g>
     </g>
     <g id="text_12">
      <!-- warehouse_inventory_level -->
      <g style="fill: #262626" transform="translate(225.148455 174.410102) scale(0.121 -0.121)">
       <defs>
        <path id="ArialMT-77" d="M 1034 0 
L 19 3319 
L 600 3319 
L 1128 1403 
L 1325 691 
Q 1338 744 1497 1375 
L 2025 3319 
L 2603 3319 
L 3100 1394 
L 3266 759 
L 3456 1400 
L 4025 3319 
L 4572 3319 
L 3534 0 
L 2950 0 
L 2422 1988 
L 2294 2553 
L 1622 0 
L 1034 0 
z
" transform="scale(0.015625)"/>
        <path id="ArialMT-79" d="M 397 -1278 
L 334 -750 
Q 519 -800 656 -800 
Q 844 -800 956 -737 
Q 1069 -675 1141 -563 
Q 1194 -478 1313 -144 
Q 1328 -97 1363 -6 
L 103 3319 
L 709 3319 
L 1400 1397 
Q 1534 1031 1641 628 
Q 1738 1016 1872 1384 
L 2581 3319 
L 3144 3319 
L 1881 -56 
Q 1678 -603 1566 -809 
Q 1416 -1088 1222 -1217 
Q 1028 -1347 759 -1347 
Q 597 -1347 397 -1278 
z
" transform="scale(0.015625)"/>
       </defs>
       <use xlink:href="#ArialMT-77"/>
       <use xlink:href="#ArialMT-61" transform="translate(72.216797 0)"/>
       <use xlink:href="#ArialMT-72" transform="translate(127.832031 0)"/>
       <use xlink:href="#ArialMT-65" transform="translate(161.132812 0)"/>
       <use xlink:href="#ArialMT-68" transform="translate(216.748047 0)"/>
       <use xlink:href="#ArialMT-6f" transform="translate(272.363281 0)"/>
       <use xlink:href="#ArialMT-75" transform="translate(327.978516 0)"/>
       <use xlink:href="#ArialMT-73" transform="translate(383.59375 0)"/>
       <use xlink:href="#ArialMT-65" transform="translate(433.59375 0)"/>
       <use xlink:href="#ArialMT-5f" transform="translate(489.208984 0)"/>
       <use xlink:href="#ArialMT-69" transform="translate(544.824219 0)"/>
       <use xlink:href="#ArialMT-6e" transform="translate(567.041016 0)"/>
       <use xlink:href="#ArialMT-76" transform="translate(622.65625 0)"/>
       <use xlink:href="#ArialMT-65" transform="translate(672.65625 0)"/>
       <use xlink:href="#ArialMT-6e" transform="translate(728.271484 0)"/>
       <use xlink:href="#ArialMT-74" transform="translate(783.886719 0)"/>
       <use xlink:href="#ArialMT-6f" transform="translate(811.669922 0)"/>
       <use xlink:href="#ArialMT-72" transform="translate(867.285156 0)"/>
       <use xlink:href="#ArialMT-79" transform="translate(900.585938 0)"/>
       <use xlink:href="#ArialMT-5f" transform="translate(950.585938 0)"/>
       <use xlink:href="#ArialMT-6c" transform="translate(1006.201172 0)"/>
       <use xlink:href="#ArialMT-65" transform="translate(1028.417969 0)"/>
       <use xlink:href="#ArialMT-76" transform="translate(1084.033203 0)"/>
       <use xlink:href="#ArialMT-65" transform="translate(1134.033203 0)"/>
       <use xlink:href="#ArialMT-6c" transform="translate(1189.648438 0)"/>
      </g>
     </g>
    </g>
    <g id="ytick_8">
     <g id="line2d_16">
      <g>
       <use xlink:href="#m5d43462bc4" x="384.773986" y="192.255625" style="fill: #262626; stroke: #262626; stroke-width: 1.25"/>
      </g>
     </g>
     <g id="text_13">
      <!-- historical_demand -->
      <g style="fill: #262626" transform="translate(273.580596 196.586102) scale(0.121 -0.121)">
       <use xlink:href="#ArialMT-68"/>
       <use xlink:href="#ArialMT-69" transform="translate(55.615234 0)"/>
       <use xlink:href="#ArialMT-73" transform="translate(77.832031 0)"/>
       <use xlink:href="#ArialMT-74" transform="translate(127.832031 0)"/>
       <use xlink:href="#ArialMT-6f" transform="translate(155.615234 0)"/>
       <use xlink:href="#ArialMT-72" transform="translate(211.230469 0)"/>
       <use xlink:href="#ArialMT-69" transform="translate(244.53125 0)"/>
       <use xlink:href="#ArialMT-63" transform="translate(266.748047 0)"/>
       <use xlink:href="#ArialMT-61" transform="translate(316.748047 0)"/>
       <use xlink:href="#ArialMT-6c" transform="translate(372.363281 0)"/>
       <use xlink:href="#ArialMT-5f" transform="translate(394.580078 0)"/>
       <use xlink:href="#ArialMT-64" transform="translate(450.195312 0)"/>
       <use xlink:href="#ArialMT-65" transform="translate(505.810547 0)"/>
       <use xlink:href="#ArialMT-6d" transform="translate(561.425781 0)"/>
       <use xlink:href="#ArialMT-61" transform="translate(644.726562 0)"/>
       <use xlink:href="#ArialMT-6e" transform="translate(700.341797 0)"/>
       <use xlink:href="#ArialMT-64" transform="translate(755.957031 0)"/>
      </g>
     </g>
    </g>
    <g id="ytick_9">
     <g id="line2d_17">
      <g>
       <use xlink:href="#m5d43462bc4" x="384.773986" y="214.431625" style="fill: #262626; stroke: #262626; stroke-width: 1.25"/>
      </g>
     </g>
     <g id="text_14">
      <!-- vehicle_gps_latitude -->
      <g style="fill: #262626" transform="translate(262.130971 218.762102) scale(0.121 -0.121)">
       <use xlink:href="#ArialMT-76"/>
       <use xlink:href="#ArialMT-65" transform="translate(50 0)"/>
       <use xlink:href="#ArialMT-68" transform="translate(105.615234 0)"/>
       <use xlink:href="#ArialMT-69" transform="translate(161.230469 0)"/>
       <use xlink:href="#ArialMT-63" transform="translate(183.447266 0)"/>
       <use xlink:href="#ArialMT-6c" transform="translate(233.447266 0)"/>
       <use xlink:href="#ArialMT-65" transform="translate(255.664062 0)"/>
       <use xlink:href="#ArialMT-5f" transform="translate(311.279297 0)"/>
       <use xlink:href="#ArialMT-67" transform="translate(366.894531 0)"/>
       <use xlink:href="#ArialMT-70" transform="translate(422.509766 0)"/>
       <use xlink:href="#ArialMT-73" transform="translate(478.125 0)"/>
       <use xlink:href="#ArialMT-5f" transform="translate(528.125 0)"/>
       <use xlink:href="#ArialMT-6c" transform="translate(583.740234 0)"/>
       <use xlink:href="#ArialMT-61" transform="translate(605.957031 0)"/>
       <use xlink:href="#ArialMT-74" transform="translate(661.572266 0)"/>
       <use xlink:href="#ArialMT-69" transform="translate(689.355469 0)"/>
       <use xlink:href="#ArialMT-74" transform="translate(711.572266 0)"/>
       <use xlink:href="#ArialMT-75" transform="translate(739.355469 0)"/>
       <use xlink:href="#ArialMT-64" transform="translate(794.970703 0)"/>
       <use xlink:href="#ArialMT-65" transform="translate(850.585938 0)"/>
      </g>
     </g>
    </g>
    <g id="ytick_10">
     <g id="line2d_18">
      <g>
       <use xlink:href="#m5d43462bc4" x="384.773986" y="236.607625" style="fill: #262626; stroke: #262626; stroke-width: 1.25"/>
      </g>
     </g>
     <g id="text_15">
      <!-- fatigue_monitoring_score -->
      <g style="fill: #262626" transform="translate(235.913674 241.011836) scale(0.121 -0.121)">
       <use xlink:href="#ArialMT-66"/>
       <use xlink:href="#ArialMT-61" transform="translate(27.783203 0)"/>
       <use xlink:href="#ArialMT-74" transform="translate(83.398438 0)"/>
       <use xlink:href="#ArialMT-69" transform="translate(111.181641 0)"/>
       <use xlink:href="#ArialMT-67" transform="translate(133.398438 0)"/>
       <use xlink:href="#ArialMT-75" transform="translate(189.013672 0)"/>
       <use xlink:href="#ArialMT-65" transform="translate(244.628906 0)"/>
       <use xlink:href="#ArialMT-5f" transform="translate(300.244141 0)"/>
       <use xlink:href="#ArialMT-6d" transform="translate(355.859375 0)"/>
       <use xlink:href="#ArialMT-6f" transform="translate(439.160156 0)"/>
       <use xlink:href="#ArialMT-6e" transform="translate(494.775391 0)"/>
       <use xlink:href="#ArialMT-69" transform="translate(550.390625 0)"/>
       <use xlink:href="#ArialMT-74" transform="translate(572.607422 0)"/>
       <use xlink:href="#ArialMT-6f" transform="translate(600.390625 0)"/>
       <use xlink:href="#ArialMT-72" transform="translate(656.005859 0)"/>
       <use xlink:href="#ArialMT-69" transform="translate(689.306641 0)"/>
       <use xlink:href="#ArialMT-6e" transform="translate(711.523438 0)"/>
       <use xlink:href="#ArialMT-67" transform="translate(767.138672 0)"/>
       <use xlink:href="#ArialMT-5f" transform="translate(822.753906 0)"/>
       <use xlink:href="#ArialMT-73" transform="translate(878.369141 0)"/>
       <use xlink:href="#ArialMT-63" transform="translate(928.369141 0)"/>
       <use xlink:href="#ArialMT-6f" transform="translate(978.369141 0)"/>
       <use xlink:href="#ArialMT-72" transform="translate(1033.984375 0)"/>
       <use xlink:href="#ArialMT-65" transform="translate(1067.285156 0)"/>
      </g>
     </g>
    </g>
    <g id="ytick_11">
     <g id="line2d_19">
      <g>
       <use xlink:href="#m5d43462bc4" x="384.773986" y="258.783625" style="fill: #262626; stroke: #262626; stroke-width: 1.25"/>
      </g>
     </g>
     <g id="text_16">
      <!-- driver_behavior_score -->
      <g style="fill: #262626" transform="translate(252.065283 263.114102) scale(0.121 -0.121)">
       <defs>
        <path id="ArialMT-62" d="M 941 0 
L 419 0 
L 419 4581 
L 981 4581 
L 981 2947 
Q 1338 3394 1891 3394 
Q 2197 3394 2470 3270 
Q 2744 3147 2920 2923 
Q 3097 2700 3197 2384 
Q 3297 2069 3297 1709 
Q 3297 856 2875 390 
Q 2453 -75 1863 -75 
Q 1275 -75 941 416 
L 941 0 
z
M 934 1684 
Q 934 1088 1097 822 
Q 1363 388 1816 388 
Q 2184 388 2453 708 
Q 2722 1028 2722 1663 
Q 2722 2313 2464 2622 
Q 2206 2931 1841 2931 
Q 1472 2931 1203 2611 
Q 934 2291 934 1684 
z
" transform="scale(0.015625)"/>
       </defs>
       <use xlink:href="#ArialMT-64"/>
       <use xlink:href="#ArialMT-72" transform="translate(55.615234 0)"/>
       <use xlink:href="#ArialMT-69" transform="translate(88.916016 0)"/>
       <use xlink:href="#ArialMT-76" transform="translate(111.132812 0)"/>
       <use xlink:href="#ArialMT-65" transform="translate(161.132812 0)"/>
       <use xlink:href="#ArialMT-72" transform="translate(216.748047 0)"/>
       <use xlink:href="#ArialMT-5f" transform="translate(250.048828 0)"/>
       <use xlink:href="#ArialMT-62" transform="translate(305.664062 0)"/>
       <use xlink:href="#ArialMT-65" transform="translate(361.279297 0)"/>
       <use xlink:href="#ArialMT-68" transform="translate(416.894531 0)"/>
       <use xlink:href="#ArialMT-61" transform="translate(472.509766 0)"/>
       <use xlink:href="#ArialMT-76" transform="translate(528.125 0)"/>
       <use xlink:href="#ArialMT-69" transform="translate(578.125 0)"/>
       <use xlink:href="#ArialMT-6f" transform="translate(600.341797 0)"/>
       <use xlink:href="#ArialMT-72" transform="translate(655.957031 0)"/>
       <use xlink:href="#ArialMT-5f" transform="translate(689.257812 0)"/>
       <use xlink:href="#ArialMT-73" transform="translate(744.873047 0)"/>
       <use xlink:href="#ArialMT-63" transform="translate(794.873047 0)"/>
       <use xlink:href="#ArialMT-6f" transform="translate(844.873047 0)"/>
       <use xlink:href="#ArialMT-72" transform="translate(900.488281 0)"/>
       <use xlink:href="#ArialMT-65" transform="translate(933.789062 0)"/>
      </g>
     </g>
    </g>
    <g id="ytick_12">
     <g id="line2d_20">
      <g>
       <use xlink:href="#m5d43462bc4" x="384.773986" y="280.959625" style="fill: #262626; stroke: #262626; stroke-width: 1.25"/>
      </g>
     </g>
     <g id="text_17">
      <!-- traffic_congestion_level -->
      <g style="fill: #262626" transform="translate(245.540736 285.363836) scale(0.121 -0.121)">
       <use xlink:href="#ArialMT-74"/>
       <use xlink:href="#ArialMT-72" transform="translate(27.783203 0)"/>
       <use xlink:href="#ArialMT-61" transform="translate(61.083984 0)"/>
       <use xlink:href="#ArialMT-66" transform="translate(116.699219 0)"/>
       <use xlink:href="#ArialMT-66" transform="translate(142.732422 0)"/>
       <use xlink:href="#ArialMT-69" transform="translate(170.515625 0)"/>
       <use xlink:href="#ArialMT-63" transform="translate(192.732422 0)"/>
       <use xlink:href="#ArialMT-5f" transform="translate(242.732422 0)"/>
       <use xlink:href="#ArialMT-63" transform="translate(298.347656 0)"/>
       <use xlink:href="#ArialMT-6f" transform="translate(348.347656 0)"/>
       <use xlink:href="#ArialMT-6e" transform="translate(403.962891 0)"/>
       <use xlink:href="#ArialMT-67" transform="translate(459.578125 0)"/>
       <use xlink:href="#ArialMT-65" transform="translate(515.193359 0)"/>
       <use xlink:href="#ArialMT-73" transform="translate(570.808594 0)"/>
       <use xlink:href="#ArialMT-74" transform="translate(620.808594 0)"/>
       <use xlink:href="#ArialMT-69" transform="translate(648.591797 0)"/>
       <use xlink:href="#ArialMT-6f" transform="translate(670.808594 0)"/>
       <use xlink:href="#ArialMT-6e" transform="translate(726.423828 0)"/>
       <use xlink:href="#ArialMT-5f" transform="translate(782.039062 0)"/>
       <use xlink:href="#ArialMT-6c" transform="translate(837.654297 0)"/>
       <use xlink:href="#ArialMT-65" transform="translate(859.871094 0)"/>
       <use xlink:href="#ArialMT-76" transform="translate(915.486328 0)"/>
       <use xlink:href="#ArialMT-65" transform="translate(965.486328 0)"/>
       <use xlink:href="#ArialMT-6c" transform="translate(1021.101562 0)"/>
      </g>
     </g>
    </g>
    <g id="ytick_13">
     <g id="line2d_21">
      <g>
       <use xlink:href="#m5d43462bc4" x="384.773986" y="303.135625" style="fill: #262626; stroke: #262626; stroke-width: 1.25"/>
      </g>
     </g>
     <g id="text_18">
      <!-- shipping_costs -->
      <g style="fill: #262626" transform="translate(291.734377 307.466102) scale(0.121 -0.121)">
       <use xlink:href="#ArialMT-73"/>
       <use xlink:href="#ArialMT-68" transform="translate(50 0)"/>
       <use xlink:href="#ArialMT-69" transform="translate(105.615234 0)"/>
       <use xlink:href="#ArialMT-70" transform="translate(127.832031 0)"/>
       <use xlink:href="#ArialMT-70" transform="translate(183.447266 0)"/>
       <use xlink:href="#ArialMT-69" transform="translate(239.0625 0)"/>
       <use xlink:href="#ArialMT-6e" transform="translate(261.279297 0)"/>
       <use xlink:href="#ArialMT-67" transform="translate(316.894531 0)"/>
       <use xlink:href="#ArialMT-5f" transform="translate(372.509766 0)"/>
       <use xlink:href="#ArialMT-63" transform="translate(428.125 0)"/>
       <use xlink:href="#ArialMT-6f" transform="translate(478.125 0)"/>
       <use xlink:href="#ArialMT-73" transform="translate(533.740234 0)"/>
       <use xlink:href="#ArialMT-74" transform="translate(583.740234 0)"/>
       <use xlink:href="#ArialMT-73" transform="translate(611.523438 0)"/>
      </g>
     </g>
    </g>
    <g id="ytick_14">
     <g id="line2d_22">
      <g>
       <use xlink:href="#m5d43462bc4" x="384.773986" y="325.311625" style="fill: #262626; stroke: #262626; stroke-width: 1.25"/>
      </g>
     </g>
     <g id="text_19">
      <!-- customs_clearance_time -->
      <g style="fill: #262626" transform="translate(237.949877 329.642102) scale(0.121 -0.121)">
       <use xlink:href="#ArialMT-63"/>
       <use xlink:href="#ArialMT-75" transform="translate(50 0)"/>
       <use xlink:href="#ArialMT-73" transform="translate(105.615234 0)"/>
       <use xlink:href="#ArialMT-74" transform="translate(155.615234 0)"/>
       <use xlink:href="#ArialMT-6f" transform="translate(183.398438 0)"/>
       <use xlink:href="#ArialMT-6d" transform="translate(239.013672 0)"/>
       <use xlink:href="#ArialMT-73" transform="translate(322.314453 0)"/>
       <use xlink:href="#ArialMT-5f" transform="translate(372.314453 0)"/>
       <use xlink:href="#ArialMT-63" transform="translate(427.929688 0)"/>
       <use xlink:href="#ArialMT-6c" transform="translate(477.929688 0)"/>
       <use xlink:href="#ArialMT-65" transform="translate(500.146484 0)"/>
       <use xlink:href="#ArialMT-61" transform="translate(555.761719 0)"/>
       <use xlink:href="#ArialMT-72" transform="translate(611.376953 0)"/>
       <use xlink:href="#ArialMT-61" transform="translate(644.677734 0)"/>
       <use xlink:href="#ArialMT-6e" transform="translate(700.292969 0)"/>
       <use xlink:href="#ArialMT-63" transform="translate(755.908203 0)"/>
       <use xlink:href="#ArialMT-65" transform="translate(805.908203 0)"/>
       <use xlink:href="#ArialMT-5f" transform="translate(861.523438 0)"/>
       <use xlink:href="#ArialMT-74" transform="translate(917.138672 0)"/>
       <use xlink:href="#ArialMT-69" transform="translate(944.921875 0)"/>
       <use xlink:href="#ArialMT-6d" transform="translate(967.138672 0)"/>
       <use xlink:href="#ArialMT-65" transform="translate(1050.439453 0)"/>
      </g>
     </g>
    </g>
    <g id="ytick_15">
     <g id="line2d_23">
      <g>
       <use xlink:href="#m5d43462bc4" x="384.773986" y="347.487625" style="fill: #262626; stroke: #262626; stroke-width: 1.25"/>
      </g>
     </g>
     <g id="text_20">
      <!-- weather_condition_severity -->
      <g style="fill: #262626" transform="translate(225.154127 351.818102) scale(0.121 -0.121)">
       <use xlink:href="#ArialMT-77"/>
       <use xlink:href="#ArialMT-65" transform="translate(72.216797 0)"/>
       <use xlink:href="#ArialMT-61" transform="translate(127.832031 0)"/>
       <use xlink:href="#ArialMT-74" transform="translate(183.447266 0)"/>
       <use xlink:href="#ArialMT-68" transform="translate(211.230469 0)"/>
       <use xlink:href="#ArialMT-65" transform="translate(266.845703 0)"/>
       <use xlink:href="#ArialMT-72" transform="translate(322.460938 0)"/>
       <use xlink:href="#ArialMT-5f" transform="translate(355.761719 0)"/>
       <use xlink:href="#ArialMT-63" transform="translate(411.376953 0)"/>
       <use xlink:href="#ArialMT-6f" transform="translate(461.376953 0)"/>
       <use xlink:href="#ArialMT-6e" transform="translate(516.992188 0)"/>
       <use xlink:href="#ArialMT-64" transform="translate(572.607422 0)"/>
       <use xlink:href="#ArialMT-69" transform="translate(628.222656 0)"/>
       <use xlink:href="#ArialMT-74" transform="translate(650.439453 0)"/>
       <use xlink:href="#ArialMT-69" transform="translate(678.222656 0)"/>
       <use xlink:href="#ArialMT-6f" transform="translate(700.439453 0)"/>
       <use xlink:href="#ArialMT-6e" transform="translate(756.054688 0)"/>
       <use xlink:href="#ArialMT-5f" transform="translate(811.669922 0)"/>
       <use xlink:href="#ArialMT-73" transform="translate(867.285156 0)"/>
       <use xlink:href="#ArialMT-65" transform="translate(917.285156 0)"/>
       <use xlink:href="#ArialMT-76" transform="translate(972.900391 0)"/>
       <use xlink:href="#ArialMT-65" transform="translate(1022.900391 0)"/>
       <use xlink:href="#ArialMT-72" transform="translate(1078.515625 0)"/>
       <use xlink:href="#ArialMT-69" transform="translate(1111.816406 0)"/>
       <use xlink:href="#ArialMT-74" transform="translate(1134.033203 0)"/>
       <use xlink:href="#ArialMT-79" transform="translate(1161.816406 0)"/>
      </g>
     </g>
    </g>
    <g id="ytick_16">
     <g id="line2d_24">
      <g>
       <use xlink:href="#m5d43462bc4" x="384.773986" y="369.663625" style="fill: #262626; stroke: #262626; stroke-width: 1.25"/>
      </g>
     </g>
     <g id="text_21">
      <!-- iot_temperature -->
      <g style="fill: #262626" transform="translate(287.034283 373.994102) scale(0.121 -0.121)">
       <use xlink:href="#ArialMT-69"/>
       <use xlink:href="#ArialMT-6f" transform="translate(22.216797 0)"/>
       <use xlink:href="#ArialMT-74" transform="translate(77.832031 0)"/>
       <use xlink:href="#ArialMT-5f" transform="translate(105.615234 0)"/>
       <use xlink:href="#ArialMT-74" transform="translate(161.230469 0)"/>
       <use xlink:href="#ArialMT-65" transform="translate(189.013672 0)"/>
       <use xlink:href="#ArialMT-6d" transform="translate(244.628906 0)"/>
       <use xlink:href="#ArialMT-70" transform="translate(327.929688 0)"/>
       <use xlink:href="#ArialMT-65" transform="translate(383.544922 0)"/>
       <use xlink:href="#ArialMT-72" transform="translate(439.160156 0)"/>
       <use xlink:href="#ArialMT-61" transform="translate(472.460938 0)"/>
       <use xlink:href="#ArialMT-74" transform="translate(528.076172 0)"/>
       <use xlink:href="#ArialMT-75" transform="translate(555.859375 0)"/>
       <use xlink:href="#ArialMT-72" transform="translate(611.474609 0)"/>
       <use xlink:href="#ArialMT-65" transform="translate(644.775391 0)"/>
      </g>
     </g>
    </g>
    <g id="ytick_17">
     <g id="line2d_25">
      <g>
       <use xlink:href="#m5d43462bc4" x="384.773986" y="391.839625" style="fill: #262626; stroke: #262626; stroke-width: 1.25"/>
      </g>
     </g>
     <g id="text_22">
      <!-- cargo_condition_status -->
      <g style="fill: #262626" transform="translate(247.338721 396.170102) scale(0.121 -0.121)">
       <use xlink:href="#ArialMT-63"/>
       <use xlink:href="#ArialMT-61" transform="translate(50 0)"/>
       <use xlink:href="#ArialMT-72" transform="translate(105.615234 0)"/>
       <use xlink:href="#ArialMT-67" transform="translate(138.916016 0)"/>
       <use xlink:href="#ArialMT-6f" transform="translate(194.53125 0)"/>
       <use xlink:href="#ArialMT-5f" transform="translate(250.146484 0)"/>
       <use xlink:href="#ArialMT-63" transform="translate(305.761719 0)"/>
       <use xlink:href="#ArialMT-6f" transform="translate(355.761719 0)"/>
       <use xlink:href="#ArialMT-6e" transform="translate(411.376953 0)"/>
       <use xlink:href="#ArialMT-64" transform="translate(466.992188 0)"/>
       <use xlink:href="#ArialMT-69" transform="translate(522.607422 0)"/>
       <use xlink:href="#ArialMT-74" transform="translate(544.824219 0)"/>
       <use xlink:href="#ArialMT-69" transform="translate(572.607422 0)"/>
       <use xlink:href="#ArialMT-6f" transform="translate(594.824219 0)"/>
       <use xlink:href="#ArialMT-6e" transform="translate(650.439453 0)"/>
       <use xlink:href="#ArialMT-5f" transform="translate(706.054688 0)"/>
       <use xlink:href="#ArialMT-73" transform="translate(761.669922 0)"/>
       <use xlink:href="#ArialMT-74" transform="translate(811.669922 0)"/>
       <use xlink:href="#ArialMT-61" transform="translate(839.453125 0)"/>
       <use xlink:href="#ArialMT-74" transform="translate(895.068359 0)"/>
       <use xlink:href="#ArialMT-75" transform="translate(922.851562 0)"/>
       <use xlink:href="#ArialMT-73" transform="translate(978.466797 0)"/>
      </g>
     </g>
    </g>
    <g id="ytick_18">
     <g id="line2d_26">
      <g>
       <use xlink:href="#m5d43462bc4" x="384.773986" y="414.015625" style="fill: #262626; stroke: #262626; stroke-width: 1.25"/>
      </g>
     </g>
     <g id="text_23">
      <!-- supplier_reliability_score -->
      <g style="fill: #262626" transform="translate(239.29033 418.346102) scale(0.121 -0.121)">
       <use xlink:href="#ArialMT-73"/>
       <use xlink:href="#ArialMT-75" transform="translate(50 0)"/>
       <use xlink:href="#ArialMT-70" transform="translate(105.615234 0)"/>
       <use xlink:href="#ArialMT-70" transform="translate(161.230469 0)"/>
       <use xlink:href="#ArialMT-6c" transform="translate(216.845703 0)"/>
       <use xlink:href="#ArialMT-69" transform="translate(239.0625 0)"/>
       <use xlink:href="#ArialMT-65" transform="translate(261.279297 0)"/>
       <use xlink:href="#ArialMT-72" transform="translate(316.894531 0)"/>
       <use xlink:href="#ArialMT-5f" transform="translate(350.195312 0)"/>
       <use xlink:href="#ArialMT-72" transform="translate(405.810547 0)"/>
       <use xlink:href="#ArialMT-65" transform="translate(439.111328 0)"/>
       <use xlink:href="#ArialMT-6c" transform="translate(494.726562 0)"/>
       <use xlink:href="#ArialMT-69" transform="translate(516.943359 0)"/>
       <use xlink:href="#ArialMT-61" transform="translate(539.160156 0)"/>
       <use xlink:href="#ArialMT-62" transform="translate(594.775391 0)"/>
       <use xlink:href="#ArialMT-69" transform="translate(650.390625 0)"/>
       <use xlink:href="#ArialMT-6c" transform="translate(672.607422 0)"/>
       <use xlink:href="#ArialMT-69" transform="translate(694.824219 0)"/>
       <use xlink:href="#ArialMT-74" transform="translate(717.041016 0)"/>
       <use xlink:href="#ArialMT-79" transform="translate(744.824219 0)"/>
       <use xlink:href="#ArialMT-5f" transform="translate(794.824219 0)"/>
       <use xlink:href="#ArialMT-73" transform="translate(850.439453 0)"/>
       <use xlink:href="#ArialMT-63" transform="translate(900.439453 0)"/>
       <use xlink:href="#ArialMT-6f" transform="translate(950.439453 0)"/>
       <use xlink:href="#ArialMT-72" transform="translate(1006.054688 0)"/>
       <use xlink:href="#ArialMT-65" transform="translate(1039.355469 0)"/>
      </g>
     </g>
    </g>
    <g id="ytick_19">
     <g id="line2d_27">
      <g>
       <use xlink:href="#m5d43462bc4" x="384.773986" y="436.191625" style="fill: #262626; stroke: #262626; stroke-width: 1.25"/>
      </g>
     </g>
     <g id="text_24">
      <!-- lead_time_days -->
      <g style="fill: #262626" transform="translate(287.026721 440.522102) scale(0.121 -0.121)">
       <use xlink:href="#ArialMT-6c"/>
       <use xlink:href="#ArialMT-65" transform="translate(22.216797 0)"/>
       <use xlink:href="#ArialMT-61" transform="translate(77.832031 0)"/>
       <use xlink:href="#ArialMT-64" transform="translate(133.447266 0)"/>
       <use xlink:href="#ArialMT-5f" transform="translate(189.0625 0)"/>
       <use xlink:href="#ArialMT-74" transform="translate(244.677734 0)"/>
       <use xlink:href="#ArialMT-69" transform="translate(272.460938 0)"/>
       <use xlink:href="#ArialMT-6d" transform="translate(294.677734 0)"/>
       <use xlink:href="#ArialMT-65" transform="translate(377.978516 0)"/>
       <use xlink:href="#ArialMT-5f" transform="translate(433.59375 0)"/>
       <use xlink:href="#ArialMT-64" transform="translate(489.208984 0)"/>
       <use xlink:href="#ArialMT-61" transform="translate(544.824219 0)"/>
       <use xlink:href="#ArialMT-79" transform="translate(600.439453 0)"/>
       <use xlink:href="#ArialMT-73" transform="translate(650.439453 0)"/>
      </g>
     </g>
    </g>
    <g id="ytick_20">
     <g id="line2d_28">
      <g>
       <use xlink:href="#m5d43462bc4" x="384.773986" y="458.367625" style="fill: #262626; stroke: #262626; stroke-width: 1.25"/>
      </g>
     </g>
     <g id="text_25">
      <!-- handling_equipment_availability -->
      <g style="fill: #262626" transform="translate(200.247033 462.698102) scale(0.121 -0.121)">
       <defs>
        <path id="ArialMT-71" d="M 2538 -1272 
L 2538 353 
Q 2406 169 2170 47 
Q 1934 -75 1669 -75 
Q 1078 -75 651 397 
Q 225 869 225 1691 
Q 225 2191 398 2587 
Q 572 2984 901 3189 
Q 1231 3394 1625 3394 
Q 2241 3394 2594 2875 
L 2594 3319 
L 3100 3319 
L 3100 -1272 
L 2538 -1272 
z
M 803 1669 
Q 803 1028 1072 708 
Q 1341 388 1716 388 
Q 2075 388 2334 692 
Q 2594 997 2594 1619 
Q 2594 2281 2320 2615 
Q 2047 2950 1678 2950 
Q 1313 2950 1058 2639 
Q 803 2328 803 1669 
z
" transform="scale(0.015625)"/>
       </defs>
       <use xlink:href="#ArialMT-68"/>
       <use xlink:href="#ArialMT-61" transform="translate(55.615234 0)"/>
       <use xlink:href="#ArialMT-6e" transform="translate(111.230469 0)"/>
       <use xlink:href="#ArialMT-64" transform="translate(166.845703 0)"/>
       <use xlink:href="#ArialMT-6c" transform="translate(222.460938 0)"/>
       <use xlink:href="#ArialMT-69" transform="translate(244.677734 0)"/>
       <use xlink:href="#ArialMT-6e" transform="translate(266.894531 0)"/>
       <use xlink:href="#ArialMT-67" transform="translate(322.509766 0)"/>
       <use xlink:href="#ArialMT-5f" transform="translate(378.125 0)"/>
       <use xlink:href="#ArialMT-65" transform="translate(433.740234 0)"/>
       <use xlink:href="#ArialMT-71" transform="translate(489.355469 0)"/>
       <use xlink:href="#ArialMT-75" transform="translate(544.970703 0)"/>
       <use xlink:href="#ArialMT-69" transform="translate(600.585938 0)"/>
       <use xlink:href="#ArialMT-70" transform="translate(622.802734 0)"/>
       <use xlink:href="#ArialMT-6d" transform="translate(678.417969 0)"/>
       <use xlink:href="#ArialMT-65" transform="translate(761.71875 0)"/>
       <use xlink:href="#ArialMT-6e" transform="translate(817.333984 0)"/>
       <use xlink:href="#ArialMT-74" transform="translate(872.949219 0)"/>
       <use xlink:href="#ArialMT-5f" transform="translate(900.732422 0)"/>
       <use xlink:href="#ArialMT-61" transform="translate(956.347656 0)"/>
       <use xlink:href="#ArialMT-76" transform="translate(1011.962891 0)"/>
       <use xlink:href="#ArialMT-61" transform="translate(1061.962891 0)"/>
       <use xlink:href="#ArialMT-69" transform="translate(1117.578125 0)"/>
       <use xlink:href="#ArialMT-6c" transform="translate(1139.794922 0)"/>
       <use xlink:href="#ArialMT-61" transform="translate(1162.011719 0)"/>
       <use xlink:href="#ArialMT-62" transform="translate(1217.626953 0)"/>
       <use xlink:href="#ArialMT-69" transform="translate(1273.242188 0)"/>
       <use xlink:href="#ArialMT-6c" transform="translate(1295.458984 0)"/>
       <use xlink:href="#ArialMT-69" transform="translate(1317.675781 0)"/>
       <use xlink:href="#ArialMT-74" transform="translate(1339.892578 0)"/>
       <use xlink:href="#ArialMT-79" transform="translate(1367.675781 0)"/>
      </g>
     </g>
    </g>
    <g id="text_26">
     <!-- Feature -->
     <g style="fill: #262626" transform="translate(193.623533 270.438813) rotate(-90) scale(0.132 -0.132)">
      <defs>
       <path id="ArialMT-46" d="M 525 0 
L 525 4581 
L 3616 4581 
L 3616 4041 
L 1131 4041 
L 1131 2622 
L 3281 2622 
L 3281 2081 
L 1131 2081 
L 1131 0 
L 525 0 
z
" transform="scale(0.015625)"/>
      </defs>
      <use xlink:href="#ArialMT-46"/>
      <use xlink:href="#ArialMT-65" transform="translate(61.083984 0)"/>
      <use xlink:href="#ArialMT-61" transform="translate(116.699219 0)"/>
      <use xlink:href="#ArialMT-74" transform="translate(172.314453 0)"/>
      <use xlink:href="#ArialMT-75" transform="translate(200.097656 0)"/>
      <use xlink:href="#ArialMT-72" transform="translate(255.712891 0)"/>
      <use xlink:href="#ArialMT-65" transform="translate(289.013672 0)"/>
     </g>
    </g>
   </g>
   <g id="patch_3">
    <path d="M 666.291789 28.153225 
L 405.064895 28.153225 
L 405.064895 45.894025 
L 666.291789 45.894025 
z
" clip-path="url(#p6cc9195c0d)" style="fill: #cbd7ec; stroke: #000000; stroke-linejoin: miter"/>
   </g>
   <g id="patch_4">
    <path d="M 666.291789 50.329225 
L 442.296979 50.329225 
L 442.296979 68.070025 
L 666.291789 68.070025 
z
" clip-path="url(#p6cc9195c0d)" style="fill: #cbd7ec; stroke: #000000; stroke-linejoin: miter"/>
   </g>
   <g id="patch_5">
    <path d="M 666.291789 72.505225 
L 810.883077 72.505225 
L 810.883077 90.246025 
L 666.291789 90.246025 
z
" clip-path="url(#p6cc9195c0d)" style="fill: #dddcdc; stroke: #000000; stroke-linejoin: miter"/>
   </g>
   <g id="patch_6">
    <path d="M 666.291789 94.681225 
L 532.87175 94.681225 
L 532.87175 112.422025 
L 666.291789 112.422025 
z
" clip-path="url(#p6cc9195c0d)" style="fill: #cbd7ec; stroke: #000000; stroke-linejoin: miter"/>
   </g>
   <g id="patch_7">
    <path d="M 666.291789 116.857225 
L 536.15891 116.857225 
L 536.15891 134.598025 
L 666.291789 134.598025 
z
" clip-path="url(#p6cc9195c0d)" style="fill: #cbd7ec; stroke: #000000; stroke-linejoin: miter"/>
   </g>
   <g id="patch_8">
    <path d="M 666.291789 139.033225 
L 792.410965 139.033225 
L 792.410965 156.774025 
L 666.291789 156.774025 
z
" clip-path="url(#p6cc9195c0d)" style="fill: #dddcdc; stroke: #000000; stroke-linejoin: miter"/>
   </g>
   <g id="patch_9">
    <path d="M 666.291789 161.209225 
L 786.675213 161.209225 
L 786.675213 178.950025 
L 666.291789 178.950025 
z
" clip-path="url(#p6cc9195c0d)" style="fill: #dddcdc; stroke: #000000; stroke-linejoin: miter"/>
   </g>
   <g id="patch_10">
    <path d="M 666.291789 183.385225 
L 559.23704 183.385225 
L 559.23704 201.126025 
L 666.291789 201.126025 
z
" clip-path="url(#p6cc9195c0d)" style="fill: #cbd7ec; stroke: #000000; stroke-linejoin: miter"/>
   </g>
   <g id="patch_11">
    <path d="M 666.291789 205.561225 
L 565.345912 205.561225 
L 565.345912 223.302025 
L 666.291789 223.302025 
z
" clip-path="url(#p6cc9195c0d)" style="fill: #cbd7ec; stroke: #000000; stroke-linejoin: miter"/>
   </g>
   <g id="patch_12">
    <path d="M 666.291789 227.737225 
L 764.715685 227.737225 
L 764.715685 245.478025 
L 666.291789 245.478025 
z
" clip-path="url(#p6cc9195c0d)" style="fill: #dddcdc; stroke: #000000; stroke-linejoin: miter"/>
   </g>
   <g id="patch_13">
    <path d="M 666.291789 249.913225 
L 588.695604 249.913225 
L 588.695604 267.654025 
L 666.291789 267.654025 
z
" clip-path="url(#p6cc9195c0d)" style="fill: #cbd7ec; stroke: #000000; stroke-linejoin: miter"/>
   </g>
   <g id="patch_14">
    <path d="M 666.291789 272.089225 
L 597.95416 272.089225 
L 597.95416 289.830025 
L 666.291789 289.830025 
z
" clip-path="url(#p6cc9195c0d)" style="fill: #cbd7ec; stroke: #000000; stroke-linejoin: miter"/>
   </g>
   <g id="patch_15">
    <path d="M 666.291789 294.265225 
L 618.000244 294.265225 
L 618.000244 312.006025 
L 666.291789 312.006025 
z
" clip-path="url(#p6cc9195c0d)" style="fill: #cbd7ec; stroke: #000000; stroke-linejoin: miter"/>
   </g>
   <g id="patch_16">
    <path d="M 666.291789 316.441225 
L 711.193054 316.441225 
L 711.193054 334.182025 
L 666.291789 334.182025 
z
" clip-path="url(#p6cc9195c0d)" style="fill: #dddcdc; stroke: #000000; stroke-linejoin: miter"/>
   </g>
   <g id="patch_17">
    <path d="M 666.291789 338.617225 
L 689.262578 338.617225 
L 689.262578 356.358025 
L 666.291789 356.358025 
z
" clip-path="url(#p6cc9195c0d)" style="fill: #dddcdc; stroke: #000000; stroke-linejoin: miter"/>
   </g>
   <g id="patch_18">
    <path d="M 666.291789 360.793225 
L 684.14879 360.793225 
L 684.14879 378.534025 
L 666.291789 378.534025 
z
" clip-path="url(#p6cc9195c0d)" style="fill: #dddcdc; stroke: #000000; stroke-linejoin: miter"/>
   </g>
   <g id="patch_19">
    <path d="M 666.291789 382.969225 
L 677.192447 382.969225 
L 677.192447 400.710025 
L 666.291789 400.710025 
z
" clip-path="url(#p6cc9195c0d)" style="fill: #dddcdc; stroke: #000000; stroke-linejoin: miter"/>
   </g>
   <g id="patch_20">
    <path d="M 666.291789 405.145225 
L 657.297084 405.145225 
L 657.297084 422.886025 
L 666.291789 422.886025 
z
" clip-path="url(#p6cc9195c0d)" style="fill: #cbd7ec; stroke: #000000; stroke-linejoin: miter"/>
   </g>
   <g id="patch_21">
    <path d="M 666.291789 427.321225 
L 658.415077 427.321225 
L 658.415077 445.062025 
L 666.291789 445.062025 
z
" clip-path="url(#p6cc9195c0d)" style="fill: #cbd7ec; stroke: #000000; stroke-linejoin: miter"/>
   </g>
   <g id="patch_22">
    <path d="M 666.291789 449.497225 
L 673.92374 449.497225 
L 673.92374 467.238025 
L 666.291789 467.238025 
z
" clip-path="url(#p6cc9195c0d)" style="fill: #dddcdc; stroke: #000000; stroke-linejoin: miter"/>
   </g>
   <g id="line2d_29">
    <path clip-path="url(#p6cc9195c0d)" style="fill: none; stroke: #424242; stroke-width: 2.25; stroke-linecap: round"/>
   </g>
   <g id="line2d_30">
    <path clip-path="url(#p6cc9195c0d)" style="fill: none; stroke: #424242; stroke-width: 2.25; stroke-linecap: round"/>
   </g>
   <g id="line2d_31">
    <path clip-path="url(#p6cc9195c0d)" style="fill: none; stroke: #424242; stroke-width: 2.25; stroke-linecap: round"/>
   </g>
   <g id="line2d_32">
    <path clip-path="url(#p6cc9195c0d)" style="fill: none; stroke: #424242; stroke-width: 2.25; stroke-linecap: round"/>
   </g>
   <g id="line2d_33">
    <path clip-path="url(#p6cc9195c0d)" style="fill: none; stroke: #424242; stroke-width: 2.25; stroke-linecap: round"/>
   </g>
   <g id="line2d_34">
    <path clip-path="url(#p6cc9195c0d)" style="fill: none; stroke: #424242; stroke-width: 2.25; stroke-linecap: round"/>
   </g>
   <g id="line2d_35">
    <path clip-path="url(#p6cc9195c0d)" style="fill: none; stroke: #424242; stroke-width: 2.25; stroke-linecap: round"/>
   </g>
   <g id="line2d_36">
    <path clip-path="url(#p6cc9195c0d)" style="fill: none; stroke: #424242; stroke-width: 2.25; stroke-linecap: round"/>
   </g>
   <g id="line2d_37">
    <path clip-path="url(#p6cc9195c0d)" style="fill: none; stroke: #424242; stroke-width: 2.25; stroke-linecap: round"/>
   </g>
   <g id="line2d_38">
    <path clip-path="url(#p6cc9195c0d)" style="fill: none; stroke: #424242; stroke-width: 2.25; stroke-linecap: round"/>
   </g>
   <g id="line2d_39">
    <path clip-path="url(#p6cc9195c0d)" style="fill: none; stroke: #424242; stroke-width: 2.25; stroke-linecap: round"/>
   </g>
   <g id="line2d_40">
    <path clip-path="url(#p6cc9195c0d)" style="fill: none; stroke: #424242; stroke-width: 2.25; stroke-linecap: round"/>
   </g>
   <g id="line2d_41">
    <path clip-path="url(#p6cc9195c0d)" style="fill: none; stroke: #424242; stroke-width: 2.25; stroke-linecap: round"/>
   </g>
   <g id="line2d_42">
    <path clip-path="url(#p6cc9195c0d)" style="fill: none; stroke: #424242; stroke-width: 2.25; stroke-linecap: round"/>
   </g>
   <g id="line2d_43">
    <path clip-path="url(#p6cc9195c0d)" style="fill: none; stroke: #424242; stroke-width: 2.25; stroke-linecap: round"/>
   </g>
   <g id="line2d_44">
    <path clip-path="url(#p6cc9195c0d)" style="fill: none; stroke: #424242; stroke-width: 2.25; stroke-linecap: round"/>
   </g>
   <g id="line2d_45">
    <path clip-path="url(#p6cc9195c0d)" style="fill: none; stroke: #424242; stroke-width: 2.25; stroke-linecap: round"/>
   </g>
   <g id="line2d_46">
    <path clip-path="url(#p6cc9195c0d)" style="fill: none; stroke: #424242; stroke-width: 2.25; stroke-linecap: round"/>
   </g>
   <g id="line2d_47">
    <path clip-path="url(#p6cc9195c0d)" style="fill: none; stroke: #424242; stroke-width: 2.25; stroke-linecap: round"/>
   </g>
   <g id="line2d_48">
    <path clip-path="url(#p6cc9195c0d)" style="fill: none; stroke: #424242; stroke-width: 2.25; stroke-linecap: round"/>
   </g>
   <g id="line2d_49">
    <path d="M 666.291789 469.455625 
L 666.291789 25.935625 
" clip-path="url(#p6cc9195c0d)" style="fill: none; stroke: #000000; stroke-linecap: round"/>
   </g>
   <g id="text_27">
    <!-- -0.01 -->
    <g style="fill: #262626" transform="translate(7.2 39.350266) scale(0.09 -0.09)">
     <defs>
      <path id="ArialMT-2d" d="M 203 1375 
L 203 1941 
L 1931 1941 
L 1931 1375 
L 203 1375 
z
" transform="scale(0.015625)"/>
     </defs>
     <use xlink:href="#ArialMT-2d"/>
     <use xlink:href="#ArialMT-30" transform="translate(33.300781 0)"/>
     <use xlink:href="#ArialMT-2e" transform="translate(88.916016 0)"/>
     <use xlink:href="#ArialMT-30" transform="translate(116.699219 0)"/>
     <use xlink:href="#ArialMT-31" transform="translate(172.314453 0)"/>
    </g>
   </g>
   <g id="text_28">
    <!-- -0.01 -->
    <g style="fill: #262626" transform="translate(44.432084 61.526266) scale(0.09 -0.09)">
     <use xlink:href="#ArialMT-2d"/>
     <use xlink:href="#ArialMT-30" transform="translate(33.300781 0)"/>
     <use xlink:href="#ArialMT-2e" transform="translate(88.916016 0)"/>
     <use xlink:href="#ArialMT-30" transform="translate(116.699219 0)"/>
     <use xlink:href="#ArialMT-31" transform="translate(172.314453 0)"/>
    </g>
   </g>
   <g id="text_29">
    <!-- 0.01 -->
    <g style="fill: #262626" transform="translate(1188.23641 83.702266) scale(0.09 -0.09)">
     <use xlink:href="#ArialMT-30"/>
     <use xlink:href="#ArialMT-2e" transform="translate(55.615234 0)"/>
     <use xlink:href="#ArialMT-30" transform="translate(83.398438 0)"/>
     <use xlink:href="#ArialMT-31" transform="translate(139.013672 0)"/>
    </g>
   </g>
   <g id="text_30">
    <!-- -0.01 -->
    <g style="fill: #262626" transform="translate(135.006854 105.878266) scale(0.09 -0.09)">
     <use xlink:href="#ArialMT-2d"/>
     <use xlink:href="#ArialMT-30" transform="translate(33.300781 0)"/>
     <use xlink:href="#ArialMT-2e" transform="translate(88.916016 0)"/>
     <use xlink:href="#ArialMT-30" transform="translate(116.699219 0)"/>
     <use xlink:href="#ArialMT-31" transform="translate(172.314453 0)"/>
    </g>
   </g>
   <g id="text_31">
    <!-- -0.01 -->
    <g style="fill: #262626" transform="translate(138.294014 128.054266) scale(0.09 -0.09)">
     <use xlink:href="#ArialMT-2d"/>
     <use xlink:href="#ArialMT-30" transform="translate(33.300781 0)"/>
     <use xlink:href="#ArialMT-2e" transform="translate(88.916016 0)"/>
     <use xlink:href="#ArialMT-30" transform="translate(116.699219 0)"/>
     <use xlink:href="#ArialMT-31" transform="translate(172.314453 0)"/>
    </g>
   </g>
   <g id="text_32">
    <!-- 0.01 -->
    <g style="fill: #262626" transform="translate(1169.764298 150.230266) scale(0.09 -0.09)">
     <use xlink:href="#ArialMT-30"/>
     <use xlink:href="#ArialMT-2e" transform="translate(55.615234 0)"/>
     <use xlink:href="#ArialMT-30" transform="translate(83.398438 0)"/>
     <use xlink:href="#ArialMT-31" transform="translate(139.013672 0)"/>
    </g>
   </g>
   <g id="text_33">
    <!-- 0.01 -->
    <g style="fill: #262626" transform="translate(1164.028546 172.406266) scale(0.09 -0.09)">
     <use xlink:href="#ArialMT-30"/>
     <use xlink:href="#ArialMT-2e" transform="translate(55.615234 0)"/>
     <use xlink:href="#ArialMT-30" transform="translate(83.398438 0)"/>
     <use xlink:href="#ArialMT-31" transform="translate(139.013672 0)"/>
    </g>
   </g>
   <g id="text_34">
    <!-- -0.01 -->
    <g style="fill: #262626" transform="translate(161.372144 194.582266) scale(0.09 -0.09)">
     <use xlink:href="#ArialMT-2d"/>
     <use xlink:href="#ArialMT-30" transform="translate(33.300781 0)"/>
     <use xlink:href="#ArialMT-2e" transform="translate(88.916016 0)"/>
     <use xlink:href="#ArialMT-30" transform="translate(116.699219 0)"/>
     <use xlink:href="#ArialMT-31" transform="translate(172.314453 0)"/>
    </g>
   </g>
   <g id="text_35">
    <!-- -0.01 -->
    <g style="fill: #262626" transform="translate(167.481017 216.758266) scale(0.09 -0.09)">
     <use xlink:href="#ArialMT-2d"/>
     <use xlink:href="#ArialMT-30" transform="translate(33.300781 0)"/>
     <use xlink:href="#ArialMT-2e" transform="translate(88.916016 0)"/>
     <use xlink:href="#ArialMT-30" transform="translate(116.699219 0)"/>
     <use xlink:href="#ArialMT-31" transform="translate(172.314453 0)"/>
    </g>
   </g>
   <g id="text_36">
    <!-- 0.01 -->
    <g style="fill: #262626" transform="translate(1142.069018 238.934266) scale(0.09 -0.09)">
     <use xlink:href="#ArialMT-30"/>
     <use xlink:href="#ArialMT-2e" transform="translate(55.615234 0)"/>
     <use xlink:href="#ArialMT-30" transform="translate(83.398438 0)"/>
     <use xlink:href="#ArialMT-31" transform="translate(139.013672 0)"/>
    </g>
   </g>
   <g id="text_37">
    <!-- -0.00 -->
    <g style="fill: #262626" transform="translate(190.830709 261.110266) scale(0.09 -0.09)">
     <use xlink:href="#ArialMT-2d"/>
     <use xlink:href="#ArialMT-30" transform="translate(33.300781 0)"/>
     <use xlink:href="#ArialMT-2e" transform="translate(88.916016 0)"/>
     <use xlink:href="#ArialMT-30" transform="translate(116.699219 0)"/>
     <use xlink:href="#ArialMT-30" transform="translate(172.314453 0)"/>
    </g>
   </g>
   <g id="text_38">
    <!-- -0.00 -->
    <g style="fill: #262626" transform="translate(200.089264 283.286266) scale(0.09 -0.09)">
     <use xlink:href="#ArialMT-2d"/>
     <use xlink:href="#ArialMT-30" transform="translate(33.300781 0)"/>
     <use xlink:href="#ArialMT-2e" transform="translate(88.916016 0)"/>
     <use xlink:href="#ArialMT-30" transform="translate(116.699219 0)"/>
     <use xlink:href="#ArialMT-30" transform="translate(172.314453 0)"/>
    </g>
   </g>
   <g id="text_39">
    <!-- -0.00 -->
    <g style="fill: #262626" transform="translate(220.135348 305.462266) scale(0.09 -0.09)">
     <use xlink:href="#ArialMT-2d"/>
     <use xlink:href="#ArialMT-30" transform="translate(33.300781 0)"/>
     <use xlink:href="#ArialMT-2e" transform="translate(88.916016 0)"/>
     <use xlink:href="#ArialMT-30" transform="translate(116.699219 0)"/>
     <use xlink:href="#ArialMT-30" transform="translate(172.314453 0)"/>
    </g>
   </g>
   <g id="text_40">
    <!-- 0.00 -->
    <g style="fill: #262626" transform="translate(1088.546387 327.638266) scale(0.09 -0.09)">
     <use xlink:href="#ArialMT-30"/>
     <use xlink:href="#ArialMT-2e" transform="translate(55.615234 0)"/>
     <use xlink:href="#ArialMT-30" transform="translate(83.398438 0)"/>
     <use xlink:href="#ArialMT-30" transform="translate(139.013672 0)"/>
    </g>
   </g>
   <g id="text_41">
    <!-- 0.00 -->
    <g style="fill: #262626" transform="translate(1066.615911 349.814266) scale(0.09 -0.09)">
     <use xlink:href="#ArialMT-30"/>
     <use xlink:href="#ArialMT-2e" transform="translate(55.615234 0)"/>
     <use xlink:href="#ArialMT-30" transform="translate(83.398438 0)"/>
     <use xlink:href="#ArialMT-30" transform="translate(139.013672 0)"/>
    </g>
   </g>
   <g id="text_42">
    <!-- 0.00 -->
    <g style="fill: #262626" transform="translate(1061.502122 371.990266) scale(0.09 -0.09)">
     <use xlink:href="#ArialMT-30"/>
     <use xlink:href="#ArialMT-2e" transform="translate(55.615234 0)"/>
     <use xlink:href="#ArialMT-30" transform="translate(83.398438 0)"/>
     <use xlink:href="#ArialMT-30" transform="translate(139.013672 0)"/>
    </g>
   </g>
   <g id="text_43">
    <!-- 0.00 -->
    <g style="fill: #262626" transform="translate(1054.54578 394.166266) scale(0.09 -0.09)">
     <use xlink:href="#ArialMT-30"/>
     <use xlink:href="#ArialMT-2e" transform="translate(55.615234 0)"/>
     <use xlink:href="#ArialMT-30" transform="translate(83.398438 0)"/>
     <use xlink:href="#ArialMT-30" transform="translate(139.013672 0)"/>
    </g>
   </g>
   <g id="text_44">
    <!-- -0.00 -->
    <g style="fill: #262626" transform="translate(259.432189 416.342266) scale(0.09 -0.09)">
     <use xlink:href="#ArialMT-2d"/>
     <use xlink:href="#ArialMT-30" transform="translate(33.300781 0)"/>
     <use xlink:href="#ArialMT-2e" transform="translate(88.916016 0)"/>
     <use xlink:href="#ArialMT-30" transform="translate(116.699219 0)"/>
     <use xlink:href="#ArialMT-30" transform="translate(172.314453 0)"/>
    </g>
   </g>
   <g id="text_45">
    <!-- -0.00 -->
    <g style="fill: #262626" transform="translate(260.550181 438.518266) scale(0.09 -0.09)">
     <use xlink:href="#ArialMT-2d"/>
     <use xlink:href="#ArialMT-30" transform="translate(33.300781 0)"/>
     <use xlink:href="#ArialMT-2e" transform="translate(88.916016 0)"/>
     <use xlink:href="#ArialMT-30" transform="translate(116.699219 0)"/>
     <use xlink:href="#ArialMT-30" transform="translate(172.314453 0)"/>
    </g>
   </g>
   <g id="text_46">
    <!-- 0.00 -->
    <g style="fill: #262626" transform="translate(1051.277073 460.694266) scale(0.09 -0.09)">
     <use xlink:href="#ArialMT-30"/>
     <use xlink:href="#ArialMT-2e" transform="translate(55.615234 0)"/>
     <use xlink:href="#ArialMT-30" transform="translate(83.398438 0)"/>
     <use xlink:href="#ArialMT-30" transform="translate(139.013672 0)"/>
    </g>
   </g>
   <g id="text_47">
    <!-- Top correlated features with delay_probability (spearman) -->
    <g style="fill: #262626" transform="translate(443.053674 15.935625) scale(0.12 -0.12)">
     <defs>
      <path id="Arial-BoldMT-54" d="M 1497 0 
L 1497 3806 
L 138 3806 
L 138 4581 
L 3778 4581 
L 3778 3806 
L 2422 3806 
L 2422 0 
L 1497 0 
z
" transform="scale(0.015625)"/>
      <path id="Arial-BoldMT-6f" d="M 256 1706 
Q 256 2144 472 2553 
Q 688 2963 1083 3178 
Q 1478 3394 1966 3394 
Q 2719 3394 3200 2905 
Q 3681 2416 3681 1669 
Q 3681 916 3195 420 
Q 2709 -75 1972 -75 
Q 1516 -75 1102 131 
Q 688 338 472 736 
Q 256 1134 256 1706 
z
M 1156 1659 
Q 1156 1166 1390 903 
Q 1625 641 1969 641 
Q 2313 641 2545 903 
Q 2778 1166 2778 1666 
Q 2778 2153 2545 2415 
Q 2313 2678 1969 2678 
Q 1625 2678 1390 2415 
Q 1156 2153 1156 1659 
z
" transform="scale(0.015625)"/>
      <path id="Arial-BoldMT-70" d="M 434 3319 
L 1253 3319 
L 1253 2831 
Q 1413 3081 1684 3237 
Q 1956 3394 2288 3394 
Q 2866 3394 3269 2941 
Q 3672 2488 3672 1678 
Q 3672 847 3265 386 
Q 2859 -75 2281 -75 
Q 2006 -75 1782 34 
Q 1559 144 1313 409 
L 1313 -1263 
L 434 -1263 
L 434 3319 
z
M 1303 1716 
Q 1303 1156 1525 889 
Q 1747 622 2066 622 
Q 2372 622 2575 867 
Q 2778 1113 2778 1672 
Q 2778 2194 2568 2447 
Q 2359 2700 2050 2700 
Q 1728 2700 1515 2451 
Q 1303 2203 1303 1716 
z
" transform="scale(0.015625)"/>
      <path id="Arial-BoldMT-20" transform="scale(0.015625)"/>
      <path id="Arial-BoldMT-63" d="M 3353 2338 
L 2488 2181 
Q 2444 2441 2289 2572 
Q 2134 2703 1888 2703 
Q 1559 2703 1364 2476 
Q 1169 2250 1169 1719 
Q 1169 1128 1367 884 
Q 1566 641 1900 641 
Q 2150 641 2309 783 
Q 2469 925 2534 1272 
L 3397 1125 
Q 3263 531 2881 228 
Q 2500 -75 1859 -75 
Q 1131 -75 698 384 
Q 266 844 266 1656 
Q 266 2478 700 2936 
Q 1134 3394 1875 3394 
Q 2481 3394 2839 3133 
Q 3197 2872 3353 2338 
z
" transform="scale(0.015625)"/>
      <path id="Arial-BoldMT-72" d="M 1300 0 
L 422 0 
L 422 3319 
L 1238 3319 
L 1238 2847 
Q 1447 3181 1614 3287 
Q 1781 3394 1994 3394 
Q 2294 3394 2572 3228 
L 2300 2463 
Q 2078 2606 1888 2606 
Q 1703 2606 1575 2504 
Q 1447 2403 1373 2137 
Q 1300 1872 1300 1025 
L 1300 0 
z
" transform="scale(0.015625)"/>
      <path id="Arial-BoldMT-65" d="M 2381 1056 
L 3256 909 
Q 3088 428 2723 176 
Q 2359 -75 1813 -75 
Q 947 -75 531 491 
Q 203 944 203 1634 
Q 203 2459 634 2926 
Q 1066 3394 1725 3394 
Q 2466 3394 2894 2905 
Q 3322 2416 3303 1406 
L 1103 1406 
Q 1113 1016 1316 798 
Q 1519 581 1822 581 
Q 2028 581 2168 693 
Q 2309 806 2381 1056 
z
M 2431 1944 
Q 2422 2325 2234 2523 
Q 2047 2722 1778 2722 
Q 1491 2722 1303 2513 
Q 1116 2303 1119 1944 
L 2431 1944 
z
" transform="scale(0.015625)"/>
      <path id="Arial-BoldMT-6c" d="M 459 0 
L 459 4581 
L 1338 4581 
L 1338 0 
L 459 0 
z
" transform="scale(0.015625)"/>
      <path id="Arial-BoldMT-61" d="M 1116 2306 
L 319 2450 
Q 453 2931 781 3162 
Q 1109 3394 1756 3394 
Q 2344 3394 2631 3255 
Q 2919 3116 3036 2902 
Q 3153 2688 3153 2116 
L 3144 1091 
Q 3144 653 3186 445 
Q 3228 238 3344 0 
L 2475 0 
Q 2441 88 2391 259 
Q 2369 338 2359 363 
Q 2134 144 1878 34 
Q 1622 -75 1331 -75 
Q 819 -75 523 203 
Q 228 481 228 906 
Q 228 1188 362 1408 
Q 497 1628 739 1745 
Q 981 1863 1438 1950 
Q 2053 2066 2291 2166 
L 2291 2253 
Q 2291 2506 2166 2614 
Q 2041 2722 1694 2722 
Q 1459 2722 1328 2630 
Q 1197 2538 1116 2306 
z
M 2291 1594 
Q 2122 1538 1756 1459 
Q 1391 1381 1278 1306 
Q 1106 1184 1106 997 
Q 1106 813 1243 678 
Q 1381 544 1594 544 
Q 1831 544 2047 700 
Q 2206 819 2256 991 
Q 2291 1103 2291 1419 
L 2291 1594 
z
" transform="scale(0.015625)"/>
      <path id="Arial-BoldMT-74" d="M 1981 3319 
L 1981 2619 
L 1381 2619 
L 1381 1281 
Q 1381 875 1398 808 
Q 1416 741 1477 697 
Q 1538 653 1625 653 
Q 1747 653 1978 738 
L 2053 56 
Q 1747 -75 1359 -75 
Q 1122 -75 931 4 
Q 741 84 652 211 
Q 563 338 528 553 
Q 500 706 500 1172 
L 500 2619 
L 97 2619 
L 97 3319 
L 500 3319 
L 500 3978 
L 1381 4491 
L 1381 3319 
L 1981 3319 
z
" transform="scale(0.015625)"/>
      <path id="Arial-BoldMT-64" d="M 3503 0 
L 2688 0 
L 2688 488 
Q 2484 203 2207 64 
Q 1931 -75 1650 -75 
Q 1078 -75 670 386 
Q 263 847 263 1672 
Q 263 2516 659 2955 
Q 1056 3394 1663 3394 
Q 2219 3394 2625 2931 
L 2625 4581 
L 3503 4581 
L 3503 0 
z
M 1159 1731 
Q 1159 1200 1306 963 
Q 1519 619 1900 619 
Q 2203 619 2415 876 
Q 2628 1134 2628 1647 
Q 2628 2219 2422 2470 
Q 2216 2722 1894 2722 
Q 1581 2722 1370 2473 
Q 1159 2225 1159 1731 
z
" transform="scale(0.015625)"/>
      <path id="Arial-BoldMT-66" d="M 75 3319 
L 563 3319 
L 563 3569 
Q 563 3988 652 4194 
Q 741 4400 980 4529 
Q 1219 4659 1584 4659 
Q 1959 4659 2319 4547 
L 2200 3934 
Q 1991 3984 1797 3984 
Q 1606 3984 1523 3895 
Q 1441 3806 1441 3553 
L 1441 3319 
L 2097 3319 
L 2097 2628 
L 1441 2628 
L 1441 0 
L 563 0 
L 563 2628 
L 75 2628 
L 75 3319 
z
" transform="scale(0.015625)"/>
      <path id="Arial-BoldMT-75" d="M 2644 0 
L 2644 497 
Q 2463 231 2167 78 
Q 1872 -75 1544 -75 
Q 1209 -75 943 72 
Q 678 219 559 484 
Q 441 750 441 1219 
L 441 3319 
L 1319 3319 
L 1319 1794 
Q 1319 1094 1367 936 
Q 1416 778 1544 686 
Q 1672 594 1869 594 
Q 2094 594 2272 717 
Q 2450 841 2515 1023 
Q 2581 1206 2581 1919 
L 2581 3319 
L 3459 3319 
L 3459 0 
L 2644 0 
z
" transform="scale(0.015625)"/>
      <path id="Arial-BoldMT-73" d="M 150 947 
L 1031 1081 
Q 1088 825 1259 692 
Q 1431 559 1741 559 
Q 2081 559 2253 684 
Q 2369 772 2369 919 
Q 2369 1019 2306 1084 
Q 2241 1147 2013 1200 
Q 950 1434 666 1628 
Q 272 1897 272 2375 
Q 272 2806 612 3100 
Q 953 3394 1669 3394 
Q 2350 3394 2681 3172 
Q 3013 2950 3138 2516 
L 2309 2363 
Q 2256 2556 2107 2659 
Q 1959 2763 1684 2763 
Q 1338 2763 1188 2666 
Q 1088 2597 1088 2488 
Q 1088 2394 1175 2328 
Q 1294 2241 1995 2081 
Q 2697 1922 2975 1691 
Q 3250 1456 3250 1038 
Q 3250 581 2869 253 
Q 2488 -75 1741 -75 
Q 1063 -75 667 200 
Q 272 475 150 947 
z
" transform="scale(0.015625)"/>
      <path id="Arial-BoldMT-77" d="M 1078 0 
L 28 3319 
L 881 3319 
L 1503 1144 
L 2075 3319 
L 2922 3319 
L 3475 1144 
L 4109 3319 
L 4975 3319 
L 3909 0 
L 3066 0 
L 2494 2134 
L 1931 0 
L 1078 0 
z
" transform="scale(0.015625)"/>
      <path id="Arial-BoldMT-69" d="M 459 3769 
L 459 4581 
L 1338 4581 
L 1338 3769 
L 459 3769 
z
M 459 0 
L 459 3319 
L 1338 3319 
L 1338 0 
L 459 0 
z
" transform="scale(0.015625)"/>
      <path id="Arial-BoldMT-68" d="M 1334 4581 
L 1334 2897 
Q 1759 3394 2350 3394 
Q 2653 3394 2897 3281 
Q 3141 3169 3264 2994 
Q 3388 2819 3433 2606 
Q 3478 2394 3478 1947 
L 3478 0 
L 2600 0 
L 2600 1753 
Q 2600 2275 2550 2415 
Q 2500 2556 2373 2639 
Q 2247 2722 2056 2722 
Q 1838 2722 1666 2615 
Q 1494 2509 1414 2295 
Q 1334 2081 1334 1663 
L 1334 0 
L 456 0 
L 456 4581 
L 1334 4581 
z
" transform="scale(0.015625)"/>
      <path id="Arial-BoldMT-79" d="M 44 3319 
L 978 3319 
L 1772 963 
L 2547 3319 
L 3456 3319 
L 2284 125 
L 2075 -453 
Q 1959 -744 1854 -897 
Q 1750 -1050 1614 -1145 
Q 1478 -1241 1279 -1294 
Q 1081 -1347 831 -1347 
Q 578 -1347 334 -1294 
L 256 -606 
Q 463 -647 628 -647 
Q 934 -647 1081 -467 
Q 1228 -288 1306 -9 
L 44 3319 
z
" transform="scale(0.015625)"/>
      <path id="Arial-BoldMT-5f" d="M -59 -1266 
L -59 -697 
L 3591 -697 
L 3591 -1266 
L -59 -1266 
z
" transform="scale(0.015625)"/>
      <path id="Arial-BoldMT-62" d="M 422 0 
L 422 4581 
L 1300 4581 
L 1300 2931 
Q 1706 3394 2263 3394 
Q 2869 3394 3266 2955 
Q 3663 2516 3663 1694 
Q 3663 844 3258 384 
Q 2853 -75 2275 -75 
Q 1991 -75 1714 67 
Q 1438 209 1238 488 
L 1238 0 
L 422 0 
z
M 1294 1731 
Q 1294 1216 1456 969 
Q 1684 619 2063 619 
Q 2353 619 2558 867 
Q 2763 1116 2763 1650 
Q 2763 2219 2556 2470 
Q 2350 2722 2028 2722 
Q 1713 2722 1503 2476 
Q 1294 2231 1294 1731 
z
" transform="scale(0.015625)"/>
      <path id="Arial-BoldMT-28" d="M 1916 -1347 
L 1313 -1347 
Q 834 -625 584 153 
Q 334 931 334 1659 
Q 334 2563 644 3369 
Q 913 4069 1325 4659 
L 1925 4659 
Q 1497 3713 1336 3048 
Q 1175 2384 1175 1641 
Q 1175 1128 1270 590 
Q 1366 53 1531 -431 
Q 1641 -750 1916 -1347 
z
" transform="scale(0.015625)"/>
      <path id="Arial-BoldMT-6d" d="M 394 3319 
L 1203 3319 
L 1203 2866 
Q 1638 3394 2238 3394 
Q 2556 3394 2790 3262 
Q 3025 3131 3175 2866 
Q 3394 3131 3647 3262 
Q 3900 3394 4188 3394 
Q 4553 3394 4806 3245 
Q 5059 3097 5184 2809 
Q 5275 2597 5275 2122 
L 5275 0 
L 4397 0 
L 4397 1897 
Q 4397 2391 4306 2534 
Q 4184 2722 3931 2722 
Q 3747 2722 3584 2609 
Q 3422 2497 3350 2280 
Q 3278 2063 3278 1594 
L 3278 0 
L 2400 0 
L 2400 1819 
Q 2400 2303 2353 2443 
Q 2306 2584 2207 2653 
Q 2109 2722 1941 2722 
Q 1738 2722 1575 2612 
Q 1413 2503 1342 2297 
Q 1272 2091 1272 1613 
L 1272 0 
L 394 0 
L 394 3319 
z
" transform="scale(0.015625)"/>
      <path id="Arial-BoldMT-6e" d="M 3478 0 
L 2600 0 
L 2600 1694 
Q 2600 2231 2544 2389 
Q 2488 2547 2361 2634 
Q 2234 2722 2056 2722 
Q 1828 2722 1647 2597 
Q 1466 2472 1398 2265 
Q 1331 2059 1331 1503 
L 1331 0 
L 453 0 
L 453 3319 
L 1269 3319 
L 1269 2831 
Q 1703 3394 2363 3394 
Q 2653 3394 2893 3289 
Q 3134 3184 3257 3021 
Q 3381 2859 3429 2653 
Q 3478 2447 3478 2063 
L 3478 0 
z
" transform="scale(0.015625)"/>
      <path id="Arial-BoldMT-29" d="M 216 -1347 
Q 475 -791 581 -494 
Q 688 -197 778 190 
Q 869 578 912 926 
Q 956 1275 956 1641 
Q 956 2384 797 3048 
Q 638 3713 209 4659 
L 806 4659 
Q 1278 3988 1539 3234 
Q 1800 2481 1800 1706 
Q 1800 1053 1594 306 
Q 1359 -531 822 -1347 
L 216 -1347 
z
" transform="scale(0.015625)"/>
     </defs>
     <use xlink:href="#Arial-BoldMT-54"/>
     <use xlink:href="#Arial-BoldMT-6f" transform="translate(53.708984 0)"/>
     <use xlink:href="#Arial-BoldMT-70" transform="translate(114.792969 0)"/>
     <use xlink:href="#Arial-BoldMT-20" transform="translate(175.876953 0)"/>
     <use xlink:href="#Arial-BoldMT-63" transform="translate(203.660156 0)"/>
     <use xlink:href="#Arial-BoldMT-6f" transform="translate(259.275391 0)"/>
     <use xlink:href="#Arial-BoldMT-72" transform="translate(320.359375 0)"/>
     <use xlink:href="#Arial-BoldMT-72" transform="translate(359.275391 0)"/>
     <use xlink:href="#Arial-BoldMT-65" transform="translate(398.191406 0)"/>
     <use xlink:href="#Arial-BoldMT-6c" transform="translate(453.806641 0)"/>
     <use xlink:href="#Arial-BoldMT-61" transform="translate(481.589844 0)"/>
     <use xlink:href="#Arial-BoldMT-74" transform="translate(537.205078 0)"/>
     <use xlink:href="#Arial-BoldMT-65" transform="translate(570.505859 0)"/>
     <use xlink:href="#Arial-BoldMT-64" transform="translate(626.121094 0)"/>
     <use xlink:href="#Arial-BoldMT-20" transform="translate(687.205078 0)"/>
     <use xlink:href="#Arial-BoldMT-66" transform="translate(714.988281 0)"/>
     <use xlink:href="#Arial-BoldMT-65" transform="translate(748.289062 0)"/>
     <use xlink:href="#Arial-BoldMT-61" transform="translate(803.904297 0)"/>
     <use xlink:href="#Arial-BoldMT-74" transform="translate(859.519531 0)"/>
     <use xlink:href="#Arial-BoldMT-75" transform="translate(892.820312 0)"/>
     <use xlink:href="#Arial-BoldMT-72" transform="translate(953.904297 0)"/>
     <use xlink:href="#Arial-BoldMT-65" transform="translate(992.820312 0)"/>
     <use xlink:href="#Arial-BoldMT-73" transform="translate(1048.435547 0)"/>
     <use xlink:href="#Arial-BoldMT-20" transform="translate(1104.050781 0)"/>
     <use xlink:href="#Arial-BoldMT-77" transform="translate(1131.833984 0)"/>
     <use xlink:href="#Arial-BoldMT-69" transform="translate(1209.617188 0)"/>
     <use xlink:href="#Arial-BoldMT-74" transform="translate(1237.400391 0)"/>
     <use xlink:href="#Arial-BoldMT-68" transform="translate(1270.701172 0)"/>
     <use xlink:href="#Arial-BoldMT-20" transform="translate(1331.785156 0)"/>
     <use xlink:href="#Arial-BoldMT-64" transform="translate(1359.568359 0)"/>
     <use xlink:href="#Arial-BoldMT-65" transform="translate(1420.652344 0)"/>
     <use xlink:href="#Arial-BoldMT-6c" transform="translate(1476.267578 0)"/>
     <use xlink:href="#Arial-BoldMT-61" transform="translate(1504.050781 0)"/>
     <use xlink:href="#Arial-BoldMT-79" transform="translate(1559.666016 0)"/>
     <use xlink:href="#Arial-BoldMT-5f" transform="translate(1615.28125 0)"/>
     <use xlink:href="#Arial-BoldMT-70" transform="translate(1670.896484 0)"/>
     <use xlink:href="#Arial-BoldMT-72" transform="translate(1731.980469 0)"/>
     <use xlink:href="#Arial-BoldMT-6f" transform="translate(1770.896484 0)"/>
     <use xlink:href="#Arial-BoldMT-62" transform="translate(1831.980469 0)"/>
     <use xlink:href="#Arial-BoldMT-61" transform="translate(1893.064453 0)"/>
     <use xlink:href="#Arial-BoldMT-62" transform="translate(1948.679688 0)"/>
     <use xlink:href="#Arial-BoldMT-69" transform="translate(2009.763672 0)"/>
     <use xlink:href="#Arial-BoldMT-6c" transform="translate(2037.546875 0)"/>
     <use xlink:href="#Arial-BoldMT-69" transform="translate(2065.330078 0)"/>
     <use xlink:href="#Arial-BoldMT-74" transform="translate(2093.113281 0)"/>
     <use xlink:href="#Arial-BoldMT-79" transform="translate(2126.414062 0)"/>
     <use xlink:href="#Arial-BoldMT-20" transform="translate(2182.029297 0)"/>
     <use xlink:href="#Arial-BoldMT-28" transform="translate(2209.8125 0)"/>
     <use xlink:href="#Arial-BoldMT-73" transform="translate(2243.113281 0)"/>
     <use xlink:href="#Arial-BoldMT-70" transform="translate(2298.728516 0)"/>
     <use xlink:href="#Arial-BoldMT-65" transform="translate(2359.8125 0)"/>
     <use xlink:href="#Arial-BoldMT-61" transform="translate(2415.427734 0)"/>
     <use xlink:href="#Arial-BoldMT-72" transform="translate(2471.042969 0)"/>
     <use xlink:href="#Arial-BoldMT-6d" transform="translate(2509.958984 0)"/>
     <use xlink:href="#Arial-BoldMT-61" transform="translate(2598.875 0)"/>
     <use xlink:href="#Arial-BoldMT-6e" transform="translate(2654.490234 0)"/>
     <use xlink:href="#Arial-BoldMT-29" transform="translate(2715.574219 0)"/>
    </g>
   </g>
  </g>
 </g>
 <defs>
  <clipPath id="p6cc9195c0d">
   <rect x="384.773986" y="25.935625" width="446.4" height="443.52"/>
  </clipPath>
 </defs>
</svg>
